<svg xmlns="http://www.w3.org/2000/svg" xmlns:xlink="http://www.w3.org/1999/xlink" width="1600" zoomAndPan="magnify" viewBox="0 0 1200 899.99999" height="1200" preserveAspectRatio="xMidYMid meet" version="1.0"><defs><g/><clipPath id="6b281ecac2"><path d="M 61.589844 47.304688 L 401.738281 47.304688 L 401.738281 687.738281 L 61.589844 687.738281 Z M 61.589844 47.304688 " clip-rule="nonzero"/></clipPath><clipPath id="9e312df36d"><path d="M 78.839844 47.304688 L 384.488281 47.304688 C 389.0625 47.304688 393.449219 49.121094 396.6875 52.355469 C 399.921875 55.589844 401.738281 59.976562 401.738281 64.554688 L 401.738281 670.035156 C 401.738281 674.613281 399.921875 679 396.6875 682.234375 C 393.449219 685.46875 389.0625 687.285156 384.488281 687.285156 L 78.839844 687.285156 C 74.265625 687.285156 69.875 685.46875 66.640625 682.234375 C 63.40625 679 61.589844 674.613281 61.589844 670.035156 L 61.589844 64.554688 C 61.589844 59.976562 63.40625 55.589844 66.640625 52.355469 C 69.875 49.121094 74.265625 47.304688 78.839844 47.304688 Z M 78.839844 47.304688 " clip-rule="nonzero"/></clipPath><clipPath id="912087f2c3"><path d="M 429.925781 47.304688 L 770.074219 47.304688 L 770.074219 687.738281 L 429.925781 687.738281 Z M 429.925781 47.304688 " clip-rule="nonzero"/></clipPath><clipPath id="69a28f82ce"><path d="M 447.175781 47.304688 L 752.824219 47.304688 C 757.398438 47.304688 761.785156 49.121094 765.023438 52.355469 C 768.257812 55.589844 770.074219 59.976562 770.074219 64.554688 L 770.074219 670.035156 C 770.074219 674.613281 768.257812 679 765.023438 682.234375 C 761.785156 685.46875 757.398438 687.285156 752.824219 687.285156 L 447.175781 687.285156 C 442.601562 687.285156 438.214844 685.46875 434.976562 682.234375 C 431.742188 679 429.925781 674.613281 429.925781 670.035156 L 429.925781 64.554688 C 429.925781 59.976562 431.742188 55.589844 434.976562 52.355469 C 438.214844 49.121094 442.601562 47.304688 447.175781 47.304688 Z M 447.175781 47.304688 " clip-rule="nonzero"/></clipPath><clipPath id="d4a6340678"><path d="M 798.261719 47.304688 L 1138.410156 47.304688 L 1138.410156 687.738281 L 798.261719 687.738281 Z M 798.261719 47.304688 " clip-rule="nonzero"/></clipPath><clipPath id="9e689e50da"><path d="M 815.511719 47.304688 L 1121.160156 47.304688 C 1125.734375 47.304688 1130.125 49.121094 1133.359375 52.355469 C 1136.59375 55.589844 1138.410156 59.976562 1138.410156 64.554688 L 1138.410156 670.035156 C 1138.410156 674.613281 1136.59375 679 1133.359375 682.234375 C 1130.125 685.46875 1125.734375 687.285156 1121.160156 687.285156 L 815.511719 687.285156 C 810.9375 687.285156 806.550781 685.46875 803.3125 682.234375 C 800.078125 679 798.261719 674.613281 798.261719 670.035156 L 798.261719 64.554688 C 798.261719 59.976562 800.078125 55.589844 803.3125 52.355469 C 806.550781 49.121094 810.9375 47.304688 815.511719 47.304688 Z M 815.511719 47.304688 " clip-rule="nonzero"/></clipPath><clipPath id="d95866ab68"><path d="M 120.703125 256.335938 L 342.703125 256.335938 L 342.703125 478.335938 L 120.703125 478.335938 Z M 120.703125 256.335938 " clip-rule="nonzero"/></clipPath><clipPath id="c5ba64364d"><path d="M 489.039062 274 L 693 274 L 693 478.335938 L 489.039062 478.335938 Z M 489.039062 274 " clip-rule="nonzero"/></clipPath><clipPath id="5c6618b75d"><path d="M 867.058594 256.335938 L 1069.558594 256.335938 L 1069.558594 478.335938 L 867.058594 478.335938 Z M 867.058594 256.335938 " clip-rule="nonzero"/></clipPath></defs><g clip-path="url(#6b281ecac2)"><g clip-path="url(#9e312df36d)"><path fill="#00bf63" d="M 61.589844 47.304688 L 401.738281 47.304688 L 401.738281 687.738281 L 61.589844 687.738281 Z M 61.589844 47.304688 " fill-opacity="1" fill-rule="nonzero"/></g></g><g clip-path="url(#912087f2c3)"><g clip-path="url(#69a28f82ce)"><path fill="#38b6ff" d="M 429.925781 47.304688 L 770.074219 47.304688 L 770.074219 687.738281 L 429.925781 687.738281 Z M 429.925781 47.304688 " fill-opacity="1" fill-rule="nonzero"/></g></g><g clip-path="url(#d4a6340678)"><g clip-path="url(#9e689e50da)"><path fill="#d23936" d="M 798.261719 47.304688 L 1138.410156 47.304688 L 1138.410156 687.738281 L 798.261719 687.738281 Z M 798.261719 47.304688 " fill-opacity="1" fill-rule="nonzero"/></g></g><g clip-path="url(#d95866ab68)"><path fill="#ffffff" d="M 320.417969 345.101562 L 253.761719 345.101562 L 253.761719 278.53125 C 253.761719 266.285156 243.820312 256.339844 231.570312 256.339844 C 219.324219 256.339844 209.378906 266.285156 209.378906 278.53125 L 209.378906 345.105469 L 142.902344 345.101562 C 130.652344 345.101562 120.710938 355.042969 120.710938 367.289062 C 120.710938 379.539062 130.652344 389.480469 142.902344 389.480469 L 209.382812 389.480469 L 209.382812 456.054688 C 209.382812 468.304688 219.328125 478.246094 231.578125 478.246094 C 243.824219 478.246094 253.765625 468.304688 253.765625 456.054688 L 253.765625 389.480469 L 320.417969 389.480469 C 332.667969 389.480469 342.613281 379.539062 342.613281 367.289062 C 342.613281 355.042969 332.667969 345.101562 320.417969 345.101562 Z M 320.417969 345.101562 " fill-opacity="1" fill-rule="evenodd"/></g><g clip-path="url(#c5ba64364d)"><path fill="#ffffff" d="M 675.382812 461.3125 L 505.980469 461.3125 L 505.980469 291.910156 L 607.621094 291.910156 L 607.621094 274.96875 L 505.980469 274.96875 C 496.628906 274.96875 489.039062 282.558594 489.039062 291.910156 L 489.039062 461.3125 C 489.039062 470.664062 496.628906 478.253906 505.980469 478.253906 L 675.382812 478.253906 C 684.734375 478.253906 692.324219 470.664062 692.324219 461.3125 L 692.324219 359.671875 L 675.382812 359.671875 Z M 675.382812 461.3125 " fill-opacity="1" fill-rule="nonzero"/></g><path fill="#ffffff" d="M 556.800781 410.761719 L 592.460938 410.761719 L 678.890625 324.332031 L 642.960938 288.402344 L 556.800781 374.5625 Z M 556.800781 410.761719 " fill-opacity="1" fill-rule="nonzero"/><path fill="#ffffff" d="M 704.300781 274.96875 L 692.324219 262.992188 C 685.699219 256.367188 674.976562 256.367188 668.371094 262.992188 L 654.9375 276.425781 L 690.867188 312.355469 L 704.300781 298.921875 C 710.921875 292.296875 710.921875 281.574219 704.300781 274.96875 Z M 704.300781 274.96875 " fill-opacity="1" fill-rule="nonzero"/><g clip-path="url(#5c6618b75d)"><path fill="#ffffff" d="M 1059.960938 294.957031 L 1016.558594 294.957031 L 1016.558594 288.15625 C 1016.558594 287.113281 1016.503906 286.078125 1016.402344 285.042969 C 1016.296875 284.007812 1016.144531 282.980469 1015.941406 281.957031 C 1015.734375 280.9375 1015.480469 279.929688 1015.179688 278.933594 C 1014.875 277.941406 1014.523438 276.960938 1014.125 276 C 1013.726562 275.039062 1013.28125 274.101562 1012.792969 273.183594 C 1012.300781 272.265625 1011.765625 271.375 1011.1875 270.511719 C 1010.609375 269.644531 1009.988281 268.8125 1009.328125 268.007812 C 1008.667969 267.203125 1007.972656 266.433594 1007.234375 265.699219 C 1006.5 264.960938 1005.730469 264.261719 1004.925781 263.601562 C 1004.121094 262.941406 1003.289062 262.324219 1002.421875 261.746094 C 1001.558594 261.167969 1000.667969 260.632812 999.75 260.140625 C 998.832031 259.652344 997.894531 259.207031 996.933594 258.808594 C 995.972656 258.40625 994.992188 258.058594 993.996094 257.753906 C 993.003906 257.453125 991.996094 257.199219 990.976562 256.992188 C 989.953125 256.789062 988.925781 256.636719 987.890625 256.53125 C 986.855469 256.429688 985.816406 256.375 984.777344 256.375 L 951.886719 256.375 C 950.847656 256.375 949.808594 256.429688 948.773438 256.53125 C 947.738281 256.636719 946.710938 256.789062 945.691406 256.992188 C 944.671875 257.199219 943.664062 257.453125 942.667969 257.753906 C 941.671875 258.058594 940.695312 258.40625 939.734375 258.808594 C 938.773438 259.207031 937.832031 259.652344 936.917969 260.140625 C 936 260.632812 935.109375 261.167969 934.242188 261.746094 C 933.378906 262.324219 932.542969 262.941406 931.738281 263.601562 C 930.933594 264.261719 930.164062 264.960938 929.429688 265.699219 C 928.695312 266.433594 927.996094 267.203125 927.335938 268.007812 C 926.675781 268.8125 926.058594 269.644531 925.476562 270.511719 C 924.898438 271.375 924.367188 272.265625 923.875 273.183594 C 923.382812 274.101562 922.9375 275.039062 922.539062 276 C 922.140625 276.960938 921.789062 277.941406 921.488281 278.933594 C 921.183594 279.929688 920.929688 280.9375 920.726562 281.957031 C 920.523438 282.980469 920.367188 284.007812 920.265625 285.042969 C 920.160156 286.078125 920.109375 287.113281 920.109375 288.15625 L 920.109375 294.957031 L 876.703125 294.957031 C 876.070312 294.957031 875.445312 295.015625 874.824219 295.140625 C 874.203125 295.265625 873.597656 295.445312 873.011719 295.6875 C 872.429688 295.933594 871.871094 296.230469 871.347656 296.582031 C 870.820312 296.933594 870.332031 297.332031 869.882812 297.78125 C 869.4375 298.226562 869.035156 298.714844 868.683594 299.242188 C 868.332031 299.769531 868.035156 300.324219 867.792969 300.910156 C 867.550781 301.496094 867.367188 302.097656 867.246094 302.71875 C 867.121094 303.339844 867.058594 303.96875 867.058594 304.601562 C 867.058594 305.234375 867.121094 305.859375 867.246094 306.480469 C 867.367188 307.101562 867.550781 307.707031 867.792969 308.292969 C 868.035156 308.875 868.332031 309.433594 868.683594 309.957031 C 869.035156 310.484375 869.4375 310.972656 869.882812 311.421875 C 870.332031 311.867188 870.820312 312.269531 871.347656 312.621094 C 871.871094 312.972656 872.429688 313.269531 873.011719 313.511719 C 873.597656 313.753906 874.203125 313.9375 874.824219 314.058594 C 875.445312 314.183594 876.070312 314.246094 876.703125 314.246094 L 891.171875 314.246094 L 891.171875 446.285156 C 891.175781 447.332031 891.226562 448.375 891.332031 449.417969 C 891.433594 450.457031 891.589844 451.492188 891.792969 452.515625 C 892 453.542969 892.253906 454.554688 892.558594 455.558594 C 892.867188 456.558594 893.21875 457.542969 893.621094 458.507812 C 894.019531 459.472656 894.46875 460.417969 894.964844 461.339844 C 895.457031 462.261719 895.996094 463.15625 896.578125 464.027344 C 897.160156 464.894531 897.78125 465.734375 898.445312 466.542969 C 899.113281 467.351562 899.8125 468.125 900.554688 468.863281 C 901.292969 469.601562 902.070312 470.304688 902.878906 470.96875 C 903.6875 471.628906 904.527344 472.253906 905.398438 472.832031 C 906.265625 473.414062 907.164062 473.949219 908.085938 474.445312 C 909.007812 474.9375 909.953125 475.382812 910.921875 475.78125 C 911.886719 476.183594 912.871094 476.535156 913.871094 476.835938 C 914.875 477.140625 915.886719 477.394531 916.914062 477.597656 C 917.941406 477.800781 918.972656 477.957031 920.015625 478.058594 C 921.054688 478.160156 922.097656 478.210938 923.144531 478.210938 L 1013.570312 478.210938 C 1014.613281 478.210938 1015.65625 478.15625 1016.695312 478.054688 C 1017.734375 477.949219 1018.769531 477.796875 1019.792969 477.589844 C 1020.816406 477.386719 1021.832031 477.128906 1022.832031 476.828125 C 1023.832031 476.523438 1024.8125 476.167969 1025.777344 475.769531 C 1026.742188 475.367188 1027.6875 474.921875 1028.609375 474.429688 C 1029.53125 473.933594 1030.425781 473.398438 1031.292969 472.816406 C 1032.164062 472.234375 1033 471.613281 1033.808594 470.949219 C 1034.617188 470.289062 1035.390625 469.585938 1036.128906 468.847656 C 1036.867188 468.109375 1037.570312 467.335938 1038.230469 466.527344 C 1038.894531 465.71875 1039.515625 464.878906 1040.097656 464.011719 C 1040.679688 463.144531 1041.214844 462.246094 1041.710938 461.328125 C 1042.203125 460.40625 1042.648438 459.460938 1043.050781 458.496094 C 1043.453125 457.53125 1043.804688 456.546875 1044.109375 455.546875 C 1044.414062 454.546875 1044.667969 453.535156 1044.871094 452.511719 C 1045.078125 451.488281 1045.230469 450.453125 1045.335938 449.414062 C 1045.4375 448.375 1045.492188 447.332031 1045.492188 446.285156 L 1045.492188 314.246094 L 1059.960938 314.246094 C 1060.59375 314.246094 1061.222656 314.183594 1061.84375 314.058594 C 1062.464844 313.9375 1063.066406 313.753906 1063.652344 313.511719 C 1064.238281 313.269531 1064.792969 312.972656 1065.320312 312.621094 C 1065.847656 312.269531 1066.332031 311.867188 1066.78125 311.421875 C 1067.230469 310.972656 1067.628906 310.484375 1067.980469 309.957031 C 1068.332031 309.433594 1068.628906 308.875 1068.871094 308.292969 C 1069.113281 307.707031 1069.296875 307.101562 1069.421875 306.480469 C 1069.542969 305.859375 1069.605469 305.234375 1069.605469 304.601562 C 1069.605469 303.96875 1069.542969 303.339844 1069.421875 302.71875 C 1069.296875 302.097656 1069.113281 301.496094 1068.871094 300.910156 C 1068.628906 300.324219 1068.332031 299.769531 1067.980469 299.242188 C 1067.628906 298.714844 1067.230469 298.226562 1066.78125 297.78125 C 1066.332031 297.332031 1065.847656 296.933594 1065.320312 296.582031 C 1064.792969 296.230469 1064.238281 295.933594 1063.652344 295.6875 C 1063.066406 295.445312 1062.464844 295.265625 1061.84375 295.140625 C 1061.222656 295.015625 1060.59375 294.957031 1059.960938 294.957031 Z M 939.398438 288.15625 C 939.398438 287.335938 939.476562 286.523438 939.636719 285.71875 C 939.796875 284.914062 940.035156 284.132812 940.347656 283.375 C 940.664062 282.617188 941.046875 281.898438 941.503906 281.214844 C 941.957031 280.535156 942.476562 279.902344 943.054688 279.324219 C 943.636719 278.742188 944.265625 278.226562 944.949219 277.769531 C 945.628906 277.3125 946.351562 276.929688 947.109375 276.617188 C 947.867188 276.300781 948.648438 276.066406 949.453125 275.90625 C 950.253906 275.746094 951.066406 275.664062 951.886719 275.664062 L 984.777344 275.664062 C 985.597656 275.664062 986.410156 275.746094 987.214844 275.90625 C 988.019531 276.066406 988.800781 276.300781 989.558594 276.617188 C 990.316406 276.929688 991.035156 277.3125 991.71875 277.769531 C 992.398438 278.226562 993.03125 278.742188 993.609375 279.324219 C 994.191406 279.902344 994.707031 280.535156 995.164062 281.214844 C 995.617188 281.898438 996.003906 282.617188 996.316406 283.375 C 996.632812 284.132812 996.867188 284.914062 997.027344 285.71875 C 997.1875 286.523438 997.269531 287.335938 997.269531 288.15625 L 997.269531 294.957031 L 939.398438 294.957031 Z M 1026.203125 446.285156 C 1026.199219 447.117188 1026.117188 447.9375 1025.953125 448.75 C 1025.789062 449.5625 1025.546875 450.347656 1025.230469 451.113281 C 1024.910156 451.878906 1024.519531 452.605469 1024.058594 453.296875 C 1023.597656 453.984375 1023.074219 454.621094 1022.488281 455.207031 C 1021.902344 455.792969 1021.265625 456.316406 1020.578125 456.777344 C 1019.886719 457.238281 1019.160156 457.628906 1018.394531 457.945312 C 1017.632812 458.265625 1016.84375 458.507812 1016.03125 458.671875 C 1015.21875 458.835938 1014.398438 458.917969 1013.570312 458.921875 L 923.144531 458.921875 C 922.316406 458.921875 921.492188 458.839844 920.675781 458.679688 C 919.863281 458.515625 919.070312 458.277344 918.304688 457.960938 C 917.535156 457.644531 916.804688 457.253906 916.113281 456.792969 C 915.421875 456.332031 914.78125 455.808594 914.195312 455.222656 C 913.605469 454.636719 913.078125 454 912.617188 453.308594 C 912.152344 452.621094 911.761719 451.890625 911.441406 451.125 C 911.121094 450.359375 910.878906 449.570312 910.714844 448.753906 C 910.550781 447.941406 910.464844 447.117188 910.460938 446.285156 L 910.460938 314.246094 L 1026.203125 314.246094 Z M 1026.203125 446.285156 " fill-opacity="1" fill-rule="nonzero"/></g><path fill="#ffffff" d="M 944.21875 335.898438 C 943.585938 335.898438 942.960938 335.960938 942.339844 336.082031 C 941.71875 336.207031 941.113281 336.390625 940.527344 336.632812 C 939.945312 336.875 939.386719 337.171875 938.863281 337.523438 C 938.335938 337.875 937.847656 338.277344 937.398438 338.722656 C 936.953125 339.171875 936.550781 339.660156 936.199219 340.183594 C 935.847656 340.710938 935.550781 341.269531 935.308594 341.851562 C 935.066406 342.4375 934.882812 343.039062 934.761719 343.660156 C 934.636719 344.28125 934.574219 344.910156 934.574219 345.542969 L 934.574219 432.347656 C 934.574219 432.984375 934.636719 433.609375 934.761719 434.230469 C 934.882812 434.851562 935.066406 435.457031 935.308594 436.039062 C 935.550781 436.625 935.847656 437.179688 936.199219 437.707031 C 936.550781 438.234375 936.953125 438.722656 937.398438 439.167969 C 937.847656 439.617188 938.335938 440.015625 938.863281 440.367188 C 939.386719 440.722656 939.945312 441.019531 940.527344 441.261719 C 941.113281 441.503906 941.71875 441.6875 942.339844 441.808594 C 942.960938 441.933594 943.585938 441.996094 944.21875 441.996094 C 944.855469 441.996094 945.480469 441.933594 946.101562 441.808594 C 946.722656 441.6875 947.328125 441.503906 947.910156 441.261719 C 948.496094 441.019531 949.050781 440.722656 949.578125 440.367188 C 950.105469 440.015625 950.59375 439.617188 951.039062 439.167969 C 951.488281 438.722656 951.886719 438.234375 952.238281 437.707031 C 952.589844 437.179688 952.890625 436.625 953.132812 436.039062 C 953.375 435.457031 953.554688 434.851562 953.679688 434.230469 C 953.804688 433.609375 953.867188 432.984375 953.867188 432.347656 L 953.867188 345.542969 C 953.867188 344.910156 953.804688 344.28125 953.679688 343.660156 C 953.554688 343.039062 953.375 342.4375 953.132812 341.851562 C 952.890625 341.269531 952.589844 340.710938 952.238281 340.183594 C 951.886719 339.660156 951.488281 339.171875 951.039062 338.722656 C 950.59375 338.277344 950.105469 337.875 949.578125 337.523438 C 949.050781 337.171875 948.496094 336.875 947.910156 336.632812 C 947.328125 336.390625 946.722656 336.207031 946.101562 336.082031 C 945.480469 335.960938 944.855469 335.898438 944.21875 335.898438 Z M 944.21875 335.898438 " fill-opacity="1" fill-rule="nonzero"/><path fill="#ffffff" d="M 992.445312 335.898438 C 991.8125 335.898438 991.183594 335.960938 990.5625 336.082031 C 989.941406 336.207031 989.339844 336.390625 988.753906 336.632812 C 988.167969 336.875 987.613281 337.171875 987.085938 337.523438 C 986.5625 337.875 986.074219 338.277344 985.625 338.722656 C 985.179688 339.171875 984.777344 339.660156 984.425781 340.183594 C 984.074219 340.710938 983.777344 341.269531 983.535156 341.851562 C 983.292969 342.4375 983.109375 343.039062 982.984375 343.660156 C 982.863281 344.28125 982.800781 344.910156 982.800781 345.542969 L 982.800781 432.347656 C 982.800781 432.984375 982.863281 433.609375 982.984375 434.230469 C 983.109375 434.851562 983.292969 435.457031 983.535156 436.039062 C 983.777344 436.625 984.074219 437.179688 984.425781 437.707031 C 984.777344 438.234375 985.179688 438.722656 985.625 439.167969 C 986.074219 439.617188 986.5625 440.015625 987.085938 440.367188 C 987.613281 440.722656 988.167969 441.019531 988.753906 441.261719 C 989.339844 441.503906 989.941406 441.6875 990.5625 441.808594 C 991.183594 441.933594 991.8125 441.996094 992.445312 441.996094 C 993.078125 441.996094 993.707031 441.933594 994.328125 441.808594 C 994.949219 441.6875 995.550781 441.503906 996.136719 441.261719 C 996.722656 441.019531 997.277344 440.722656 997.804688 440.367188 C 998.332031 440.015625 998.816406 439.617188 999.265625 439.167969 C 999.714844 438.722656 1000.113281 438.234375 1000.464844 437.707031 C 1000.816406 437.179688 1001.113281 436.625 1001.355469 436.039062 C 1001.597656 435.457031 1001.78125 434.851562 1001.90625 434.230469 C 1002.027344 433.609375 1002.089844 432.984375 1002.089844 432.347656 L 1002.089844 345.542969 C 1002.089844 344.910156 1002.027344 344.28125 1001.90625 343.660156 C 1001.78125 343.039062 1001.597656 342.4375 1001.355469 341.851562 C 1001.113281 341.269531 1000.816406 340.710938 1000.464844 340.183594 C 1000.113281 339.660156 999.714844 339.171875 999.265625 338.722656 C 998.816406 338.277344 998.332031 337.875 997.804688 337.523438 C 997.277344 337.171875 996.722656 336.875 996.136719 336.632812 C 995.550781 336.390625 994.949219 336.207031 994.328125 336.082031 C 993.707031 335.960938 993.078125 335.898438 992.445312 335.898438 Z M 992.445312 335.898438 " fill-opacity="1" fill-rule="nonzero"/><g fill="#ffffff" fill-opacity="1"><g transform="translate(166.268597, 618.450876)"><g><path d="M 35.40625 0.125 L 34.140625 0 L 32.765625 -0.59375 L 31.5625 -1.5 L 31.203125 -2.578125 L 30.65625 -3.71875 L 29.515625 -4.6875 L 28.203125 -5.34375 L 26.875 -5.15625 L 25.796875 -5.28125 L 19.921875 -5.21875 L 18.84375 -5.40625 L 16.3125 -5.15625 L 15.1875 -5.34375 L 13.921875 -4.6875 L 12.78125 -3.546875 L 11.703125 -1.5625 L 10.5625 -0.484375 L 9.1875 -0.0625 L 5.8125 0.0625 L 4.625 -0.0625 L 2.28125 0.0625 L 1.078125 -0.296875 L 0.78125 -1.796875 L 1.140625 -3 L 2.34375 -5.40625 L 2.640625 -6.484375 L 3.296875 -7.3125 L 4.203125 -9.71875 L 5.28125 -11.640625 L 5.703125 -12.84375 L 6.296875 -13.734375 L 6.65625 -15.0625 L 12.78125 -27.90625 L 13.140625 -28.984375 L 13.796875 -30.125 L 14.09375 -31.3125 L 14.765625 -32.21875 L 17.15625 -37.734375 L 17.703125 -38.578125 L 18.125 -39.78125 L 18.65625 -40.796875 L 19.734375 -41.8125 L 21.65625 -42.484375 L 23.640625 -41.875 L 24.65625 -40.796875 L 25.796875 -38.703125 L 26.15625 -37.625 L 26.8125 -36.546875 L 27.1875 -35.34375 L 31.140625 -27 L 31.5625 -25.734375 L 32.8125 -23.515625 L 33.1875 -22.5625 L 33.71875 -21.65625 L 34.078125 -20.34375 L 34.6875 -19.203125 L 35.28125 -18.296875 L 37.5625 -12.84375 L 38.765625 -10.6875 L 39.59375 -8.453125 L 41.21875 -5.34375 L 42.125 -3.125 L 42.546875 -1.734375 L 42.359375 -0.296875 L 40.6875 0 L 38.8125 0.0625 L 37.6875 -0.0625 Z M 21.78125 -14.8125 L 24.1875 -14.875 L 25.078125 -15.359375 L 25.3125 -16.4375 L 22.5 -23.046875 L 21.65625 -23.515625 L 21 -22.984375 L 18.1875 -16.5 L 18.234375 -15.359375 L 19.203125 -14.9375 L 20.578125 -15.0625 Z M 21.78125 -14.8125 "/></g></g></g><g fill="#ffffff" fill-opacity="1"><g transform="translate(209.820116, 618.450876)"><g><path d="M 4.5 -1.859375 L 4.625 -4.140625 L 4.4375 -8.9375 L 4.5625 -10.140625 L 4.4375 -14.9375 L 4.625 -17.28125 L 4.4375 -18.546875 L 4.625 -19.6875 L 4.4375 -22.265625 L 4.625 -24.546875 L 4.375 -29.34375 L 4.5625 -30.546875 L 4.375 -31.734375 L 4.5625 -33.0625 L 4.4375 -35.34375 L 4.5 -36.546875 L 4.375 -37.734375 L 4.375 -40.203125 L 5.28125 -41.34375 L 6.359375 -42 L 7.625 -41.9375 L 8.703125 -42 L 9.90625 -41.875 L 13.734375 -42 L 14.9375 -41.875 L 23.453125 -41.8125 L 25.921875 -41.34375 L 29.21875 -40.265625 L 30.421875 -39.65625 L 32.640625 -38.28125 L 34.3125 -36.65625 L 35.34375 -35.875 L 36.90625 -34.015625 L 37.375 -33 L 38.765625 -30.953125 L 39.65625 -28.5625 L 39.953125 -27.484375 L 40.078125 -26.21875 L 40.984375 -22.796875 L 40.734375 -18.953125 L 40.796875 -17.9375 L 40.5 -16.6875 L 40.3125 -15.421875 L 39.90625 -14.34375 L 39.65625 -13.140625 L 39.0625 -12 L 38.765625 -10.859375 L 36.90625 -7.859375 L 34.5 -5.09375 L 29.40625 -1.6875 L 25.921875 -0.59375 L 22.078125 -0.0625 L 11.28125 0 L 10.015625 0.1875 L 8.8125 0.1875 L 7.5625 0 L 6.1875 0 L 5.21875 -0.546875 Z M 17.21875 -9.65625 L 22.203125 -9.90625 L 24.359375 -10.5 L 25.5625 -11.09375 L 26.515625 -11.703125 L 27.234375 -12.65625 L 28.015625 -13.5 L 28.796875 -14.578125 L 29.703125 -16.734375 L 30.0625 -17.875 L 30.359375 -20.8125 L 30.1875 -22.6875 L 29.453125 -26.21875 L 28.6875 -27.1875 L 28.015625 -28.3125 L 26.515625 -30 L 24.484375 -31.3125 L 22.078125 -32.046875 L 20.28125 -32.15625 L 19.015625 -32.09375 L 17.765625 -32.15625 L 16.015625 -31.5 L 15.296875 -30.421875 L 15.296875 -15 L 15.125 -13.796875 L 15.359375 -12.71875 L 15.234375 -11.515625 L 15.78125 -10.203125 Z M 17.21875 -9.65625 "/></g></g></g><g fill="#ffffff" fill-opacity="1"><g transform="translate(253.431625, 618.450876)"><g><path d="M 4.5 -1.859375 L 4.625 -4.140625 L 4.4375 -8.9375 L 4.5625 -10.140625 L 4.4375 -14.9375 L 4.625 -17.28125 L 4.4375 -18.546875 L 4.625 -19.6875 L 4.4375 -22.265625 L 4.625 -24.546875 L 4.375 -29.34375 L 4.5625 -30.546875 L 4.375 -31.734375 L 4.5625 -33.0625 L 4.4375 -35.34375 L 4.5 -36.546875 L 4.375 -37.734375 L 4.375 -40.203125 L 5.28125 -41.34375 L 6.359375 -42 L 7.625 -41.9375 L 8.703125 -42 L 9.90625 -41.875 L 13.734375 -42 L 14.9375 -41.875 L 23.453125 -41.8125 L 25.921875 -41.34375 L 29.21875 -40.265625 L 30.421875 -39.65625 L 32.640625 -38.28125 L 34.3125 -36.65625 L 35.34375 -35.875 L 36.90625 -34.015625 L 37.375 -33 L 38.765625 -30.953125 L 39.65625 -28.5625 L 39.953125 -27.484375 L 40.078125 -26.21875 L 40.984375 -22.796875 L 40.734375 -18.953125 L 40.796875 -17.9375 L 40.5 -16.6875 L 40.3125 -15.421875 L 39.90625 -14.34375 L 39.65625 -13.140625 L 39.0625 -12 L 38.765625 -10.859375 L 36.90625 -7.859375 L 34.5 -5.09375 L 29.40625 -1.6875 L 25.921875 -0.59375 L 22.078125 -0.0625 L 11.28125 0 L 10.015625 0.1875 L 8.8125 0.1875 L 7.5625 0 L 6.1875 0 L 5.21875 -0.546875 Z M 17.21875 -9.65625 L 22.203125 -9.90625 L 24.359375 -10.5 L 25.5625 -11.09375 L 26.515625 -11.703125 L 27.234375 -12.65625 L 28.015625 -13.5 L 28.796875 -14.578125 L 29.703125 -16.734375 L 30.0625 -17.875 L 30.359375 -20.8125 L 30.1875 -22.6875 L 29.453125 -26.21875 L 28.6875 -27.1875 L 28.015625 -28.3125 L 26.515625 -30 L 24.484375 -31.3125 L 22.078125 -32.046875 L 20.28125 -32.15625 L 19.015625 -32.09375 L 17.765625 -32.15625 L 16.015625 -31.5 L 15.296875 -30.421875 L 15.296875 -15 L 15.125 -13.796875 L 15.359375 -12.71875 L 15.234375 -11.515625 L 15.78125 -10.203125 Z M 17.21875 -9.65625 "/></g></g></g><g fill="#ffffff" fill-opacity="1"><g transform="translate(862.356297, 618.450876)"><g><path d="M 18.484375 0.1875 L 16.015625 -0.0625 L 14.8125 0.125 L 7.5 0 L 6.296875 0.125 L 5.09375 -0.484375 L 4.5 -2.34375 L 4.5 -5.40625 L 4.375 -6.546875 L 4.4375 -40.078125 L 4.984375 -41.34375 L 6.296875 -41.875 L 7.5 -41.8125 L 8.578125 -42 L 22.265625 -41.875 L 25.796875 -41.34375 L 27.0625 -41.046875 L 28.078125 -40.5625 L 29.28125 -40.3125 L 30.421875 -39.65625 L 33.484375 -37.625 L 36.65625 -34.078125 L 38.703125 -30.90625 L 39.1875 -29.765625 L 39.953125 -27.484375 L 40.796875 -22.734375 L 40.859375 -21 L 40.6875 -19.078125 L 40.6875 -17.8125 L 40.5 -16.625 L 40.140625 -15.59375 L 39.90625 -14.34375 L 39.59375 -13.203125 L 38.640625 -10.859375 L 37.921875 -9.90625 L 37.3125 -8.703125 L 34.375 -4.921875 L 30.359375 -2.21875 L 27.546875 -1.015625 L 25.078125 -0.59375 L 23.34375 -0.0625 L 22.140625 -0.0625 L 20.28125 0.1875 Z M 18.296875 -9.65625 L 20.09375 -9.71875 L 22.6875 -10.015625 L 24.421875 -10.5625 L 26.453125 -11.875 L 28.6875 -14.40625 L 29.703125 -16.625 L 30.296875 -20.8125 L 29.34375 -26.09375 L 28.796875 -27.1875 L 28.203125 -28.203125 L 27.296875 -29.28125 L 26.40625 -30.125 L 25.5 -30.78125 L 24.421875 -31.3125 L 22.078125 -31.984375 L 20.34375 -32.15625 L 17.8125 -32.09375 L 15.90625 -31.6875 L 15.296875 -30.296875 L 15.1875 -29.28125 L 15.296875 -21 L 15.0625 -18 L 15.296875 -15.0625 L 15.234375 -12.59375 L 15.296875 -11.578125 L 15.78125 -10.4375 L 17.15625 -9.78125 Z M 18.296875 -9.65625 "/></g></g></g><g fill="#ffffff" fill-opacity="1"><g transform="translate(905.967806, 618.450876)"><g><path d="M 4.3125 -1.734375 L 4.5625 -2.9375 L 4.625 -4.140625 L 4.5 -6.484375 L 4.5 -7.6875 L 4.375 -9.0625 L 4.5625 -10.140625 L 4.5 -11.28125 L 4.625 -12.59375 L 4.4375 -13.859375 L 4.5625 -16.265625 L 4.375 -18.59375 L 4.5625 -19.859375 L 4.5625 -30.59375 L 4.4375 -31.6875 L 4.5625 -32.9375 L 4.3125 -36 L 4.5625 -37.734375 L 4.4375 -40.140625 L 5.046875 -41.453125 L 6.78125 -41.875 L 14.640625 -42.0625 L 15.71875 -41.9375 L 18.0625 -42 L 19.265625 -41.875 L 21.90625 -42 L 23.09375 -41.8125 L 24.1875 -41.9375 L 28.984375 -41.875 L 30.234375 -41.34375 L 30.84375 -40.140625 L 30.65625 -39 L 30.59375 -37.6875 L 30.78125 -36.546875 L 30.90625 -34.078125 L 30.234375 -33 L 28.984375 -32.34375 L 17.453125 -32.28125 L 15.59375 -31.734375 L 15 -30 L 15.125 -28.140625 L 15.84375 -27.0625 L 16.859375 -26.40625 L 21.59375 -26.453125 L 22.984375 -26.34375 L 24.234375 -26.34375 L 25.4375 -26.453125 L 27.84375 -26.40625 L 28.859375 -25.734375 L 29.40625 -24.59375 L 29.515625 -23.40625 L 29.40625 -18.65625 L 28.796875 -17.515625 L 27.59375 -16.859375 L 26.515625 -16.796875 L 25.265625 -16.921875 L 23.640625 -16.796875 L 20.453125 -16.984375 L 19.265625 -16.859375 L 16.921875 -16.859375 L 15.84375 -16.203125 L 15.296875 -14.9375 L 15.234375 -12 L 15.78125 -10.140625 L 17.046875 -9.421875 L 18.359375 -9.546875 L 19.6875 -9.421875 L 20.8125 -9.59375 L 28.734375 -9.484375 L 30.546875 -8.875 L 31.3125 -7.6875 L 31.203125 -6.546875 L 31.265625 -2.8125 L 31.140625 -1.6875 L 30.59375 -0.546875 L 29.34375 0.0625 L 28.203125 0.1875 L 24.546875 -0.0625 L 20.875 0.125 L 19.796875 -0.0625 L 6.234375 0.0625 L 5.09375 -0.59375 Z M 4.3125 -1.734375 "/></g></g></g><g fill="#ffffff" fill-opacity="1"><g transform="translate(940.341107, 618.450876)"><g><path d="M 4.5 -1.734375 L 4.375 -3 L 4.625 -4.140625 L 4.5 -5.34375 L 4.5625 -12.65625 L 4.4375 -13.734375 L 4.375 -16.140625 L 4.5625 -17.34375 L 4.375 -19.734375 L 4.5625 -20.875 L 4.375 -23.453125 L 4.5625 -24.59375 L 4.4375 -25.796875 L 4.625 -26.875 L 4.4375 -28.140625 L 4.5625 -29.34375 L 4.5 -30.484375 L 4.6875 -31.796875 L 4.5625 -32.9375 L 4.375 -34.140625 L 4.5625 -35.40625 L 4.6875 -36.546875 L 4.3125 -39.65625 L 5.09375 -41.28125 L 6.84375 -41.9375 L 13.078125 -42.0625 L 14.640625 -41.34375 L 15.234375 -39.546875 L 15.359375 -36.59375 L 15.234375 -35.28125 L 15.421875 -25.921875 L 15.234375 -24.65625 L 15.421875 -23.34375 L 15.234375 -21.65625 L 15.296875 -18.65625 L 15.1875 -17.40625 L 15.296875 -16.203125 L 15.234375 -14.875 L 15.421875 -13.734375 L 15.359375 -11.515625 L 15.71875 -10.203125 L 16.984375 -9.65625 L 27.546875 -9.546875 L 28.859375 -9.71875 L 29.8125 -9.125 L 30.59375 -7.796875 L 30.421875 -6.65625 L 30.59375 -5.34375 L 30.484375 -4.265625 L 30.421875 -3.0625 L 30.546875 -1.734375 L 29.875 -0.65625 L 28.203125 -0.0625 L 6.953125 0.0625 L 5.046875 -0.65625 Z M 4.5 -1.734375 "/></g></g></g><g fill="#ffffff" fill-opacity="1"><g transform="translate(972.614817, 618.450876)"><g><path d="M 4.3125 -1.734375 L 4.5625 -2.9375 L 4.625 -4.140625 L 4.5 -6.484375 L 4.5 -7.6875 L 4.375 -9.0625 L 4.5625 -10.140625 L 4.5 -11.28125 L 4.625 -12.59375 L 4.4375 -13.859375 L 4.5625 -16.265625 L 4.375 -18.59375 L 4.5625 -19.859375 L 4.5625 -30.59375 L 4.4375 -31.6875 L 4.5625 -32.9375 L 4.3125 -36 L 4.5625 -37.734375 L 4.4375 -40.140625 L 5.046875 -41.453125 L 6.78125 -41.875 L 14.640625 -42.0625 L 15.71875 -41.9375 L 18.0625 -42 L 19.265625 -41.875 L 21.90625 -42 L 23.09375 -41.8125 L 24.1875 -41.9375 L 28.984375 -41.875 L 30.234375 -41.34375 L 30.84375 -40.140625 L 30.65625 -39 L 30.59375 -37.6875 L 30.78125 -36.546875 L 30.90625 -34.078125 L 30.234375 -33 L 28.984375 -32.34375 L 17.453125 -32.28125 L 15.59375 -31.734375 L 15 -30 L 15.125 -28.140625 L 15.84375 -27.0625 L 16.859375 -26.40625 L 21.59375 -26.453125 L 22.984375 -26.34375 L 24.234375 -26.34375 L 25.4375 -26.453125 L 27.84375 -26.40625 L 28.859375 -25.734375 L 29.40625 -24.59375 L 29.515625 -23.40625 L 29.40625 -18.65625 L 28.796875 -17.515625 L 27.59375 -16.859375 L 26.515625 -16.796875 L 25.265625 -16.921875 L 23.640625 -16.796875 L 20.453125 -16.984375 L 19.265625 -16.859375 L 16.921875 -16.859375 L 15.84375 -16.203125 L 15.296875 -14.9375 L 15.234375 -12 L 15.78125 -10.140625 L 17.046875 -9.421875 L 18.359375 -9.546875 L 19.6875 -9.421875 L 20.8125 -9.59375 L 28.734375 -9.484375 L 30.546875 -8.875 L 31.3125 -7.6875 L 31.203125 -6.546875 L 31.265625 -2.8125 L 31.140625 -1.6875 L 30.59375 -0.546875 L 29.34375 0.0625 L 28.203125 0.1875 L 24.546875 -0.0625 L 20.875 0.125 L 19.796875 -0.0625 L 6.234375 0.0625 L 5.09375 -0.59375 Z M 4.3125 -1.734375 "/></g></g></g><g fill="#ffffff" fill-opacity="1"><g transform="translate(1006.988118, 618.450876)"><g><path d="M 11.515625 -1.859375 L 11.453125 -6.546875 L 11.578125 -7.734375 L 11.40625 -11.40625 L 11.453125 -12.65625 L 11.40625 -13.859375 L 11.640625 -15.65625 L 11.453125 -17.40625 L 11.453125 -19.796875 L 11.578125 -21 L 11.453125 -22.140625 L 11.640625 -24 L 11.453125 -30.59375 L 10.859375 -31.734375 L 9.78125 -32.40625 L 4.4375 -32.453125 L 2.875 -32.28125 L 1.6875 -32.875 L 1.015625 -34.203125 L 1.078125 -40.203125 L 1.6875 -41.40625 L 3 -42 L 20.875 -41.875 L 22.265625 -42.0625 L 23.453125 -42.0625 L 24.65625 -41.9375 L 25.859375 -41.9375 L 27.1875 -42.125 L 28.3125 -42.125 L 29.28125 -42 L 30.71875 -42.125 L 31.921875 -41.515625 L 32.515625 -40.3125 L 32.40625 -35.40625 L 32.515625 -34.140625 L 31.921875 -32.9375 L 30.546875 -32.40625 L 27.234375 -32.453125 L 26.15625 -32.34375 L 24.953125 -32.40625 L 23.9375 -32.34375 L 22.625 -31.796875 L 22.140625 -30.71875 L 22.265625 -29.40625 L 22.078125 -28.203125 L 22.3125 -16.265625 L 22.140625 -13.734375 L 22.265625 -12.65625 L 22.140625 -9 L 21.953125 -7.734375 L 22.140625 -6.71875 L 22.203125 -4.3125 L 22.078125 -2.9375 L 22.140625 -1.796875 L 21.65625 -0.59375 L 20.453125 -0.125 L 16.734375 -0.125 L 15.59375 0 L 14.40625 -0.125 L 13.265625 0 L 12 -0.59375 Z M 11.515625 -1.859375 "/></g></g></g><g fill="#ffffff" fill-opacity="1"><g transform="translate(1039.92166, 618.450876)"><g><path d="M 4.3125 -1.734375 L 4.5625 -2.9375 L 4.625 -4.140625 L 4.5 -6.484375 L 4.5 -7.6875 L 4.375 -9.0625 L 4.5625 -10.140625 L 4.5 -11.28125 L 4.625 -12.59375 L 4.4375 -13.859375 L 4.5625 -16.265625 L 4.375 -18.59375 L 4.5625 -19.859375 L 4.5625 -30.59375 L 4.4375 -31.6875 L 4.5625 -32.9375 L 4.3125 -36 L 4.5625 -37.734375 L 4.4375 -40.140625 L 5.046875 -41.453125 L 6.78125 -41.875 L 14.640625 -42.0625 L 15.71875 -41.9375 L 18.0625 -42 L 19.265625 -41.875 L 21.90625 -42 L 23.09375 -41.8125 L 24.1875 -41.9375 L 28.984375 -41.875 L 30.234375 -41.34375 L 30.84375 -40.140625 L 30.65625 -39 L 30.59375 -37.6875 L 30.78125 -36.546875 L 30.90625 -34.078125 L 30.234375 -33 L 28.984375 -32.34375 L 17.453125 -32.28125 L 15.59375 -31.734375 L 15 -30 L 15.125 -28.140625 L 15.84375 -27.0625 L 16.859375 -26.40625 L 21.59375 -26.453125 L 22.984375 -26.34375 L 24.234375 -26.34375 L 25.4375 -26.453125 L 27.84375 -26.40625 L 28.859375 -25.734375 L 29.40625 -24.59375 L 29.515625 -23.40625 L 29.40625 -18.65625 L 28.796875 -17.515625 L 27.59375 -16.859375 L 26.515625 -16.796875 L 25.265625 -16.921875 L 23.640625 -16.796875 L 20.453125 -16.984375 L 19.265625 -16.859375 L 16.921875 -16.859375 L 15.84375 -16.203125 L 15.296875 -14.9375 L 15.234375 -12 L 15.78125 -10.140625 L 17.046875 -9.421875 L 18.359375 -9.546875 L 19.6875 -9.421875 L 20.8125 -9.59375 L 28.734375 -9.484375 L 30.546875 -8.875 L 31.3125 -7.6875 L 31.203125 -6.546875 L 31.265625 -2.8125 L 31.140625 -1.6875 L 30.59375 -0.546875 L 29.34375 0.0625 L 28.203125 0.1875 L 24.546875 -0.0625 L 20.875 0.125 L 19.796875 -0.0625 L 6.234375 0.0625 L 5.09375 -0.59375 Z M 4.3125 -1.734375 "/></g></g></g><g fill="#ffffff" fill-opacity="1"><g transform="translate(530.943723, 618.450876)"><g><path d="M 20.875 0.1875 L 19.6875 0.0625 L 18.484375 0.1875 L 17.09375 0.125 L 15.953125 -0.125 L 13.5 0.0625 L 12.421875 0 L 11.09375 0.125 L 6.78125 0.0625 L 4.984375 -0.71875 L 4.5 -2.34375 L 4.375 -3.65625 L 4.5625 -7.796875 L 4.375 -9 L 4.5 -10.140625 L 4.5625 -19.859375 L 4.375 -20.9375 L 4.4375 -25.859375 L 4.5625 -27 L 4.375 -28.265625 L 4.5 -34.140625 L 4.3125 -35.453125 L 4.5 -37.921875 L 4.375 -40.203125 L 5.046875 -41.453125 L 6.296875 -41.9375 L 7.5 -41.875 L 8.703125 -42 L 9.78125 -41.875 L 10.921875 -42.125 L 12.125 -41.9375 L 17.046875 -42.0625 L 18.234375 -41.9375 L 19.265625 -42 L 20.453125 -41.875 L 21.78125 -42 L 26.640625 -42.0625 L 27.71875 -41.8125 L 28.984375 -41.8125 L 30.1875 -41.34375 L 30.71875 -40.203125 L 30.84375 -36.59375 L 30.78125 -35.40625 L 30.84375 -34.203125 L 30.234375 -33.125 L 28.984375 -32.40625 L 27.84375 -32.34375 L 19.265625 -32.453125 L 18.125 -32.21875 L 16.984375 -32.28125 L 15.65625 -31.796875 L 15.125 -30.65625 L 15.125 -28.796875 L 15.59375 -26.9375 L 16.859375 -26.40625 L 20.34375 -26.515625 L 22.859375 -26.34375 L 24.125 -26.453125 L 27.65625 -26.453125 L 29.046875 -25.6875 L 29.640625 -24 L 29.453125 -18.59375 L 29.046875 -17.40625 L 27.84375 -16.921875 L 26.453125 -16.984375 L 25.265625 -16.859375 L 22.796875 -16.921875 L 20.515625 -16.796875 L 18.59375 -16.984375 L 16.796875 -16.921875 L 15.71875 -16.265625 L 15.1875 -15 L 15.1875 -11.21875 L 15.65625 -10.140625 L 16.921875 -9.546875 L 18.234375 -9.65625 L 19.375 -9.484375 L 20.703125 -9.546875 L 21.90625 -9.421875 L 23.875 -9.65625 L 26.9375 -9.59375 L 28.078125 -9.421875 L 29.453125 -9.546875 L 30.71875 -9 L 31.375 -7.796875 L 31.375 -1.734375 L 30.71875 -0.484375 L 29.453125 0.0625 Z M 20.875 0.1875 "/></g></g></g><g fill="#ffffff" fill-opacity="1"><g transform="translate(565.317023, 618.450876)"><g><path d="M 4.5 -1.859375 L 4.625 -4.140625 L 4.4375 -8.9375 L 4.5625 -10.140625 L 4.4375 -14.9375 L 4.625 -17.28125 L 4.4375 -18.546875 L 4.625 -19.6875 L 4.4375 -22.265625 L 4.625 -24.546875 L 4.375 -29.34375 L 4.5625 -30.546875 L 4.375 -31.734375 L 4.5625 -33.0625 L 4.4375 -35.34375 L 4.5 -36.546875 L 4.375 -37.734375 L 4.375 -40.203125 L 5.28125 -41.34375 L 6.359375 -42 L 7.625 -41.9375 L 8.703125 -42 L 9.90625 -41.875 L 13.734375 -42 L 14.9375 -41.875 L 23.453125 -41.8125 L 25.921875 -41.34375 L 29.21875 -40.265625 L 30.421875 -39.65625 L 32.640625 -38.28125 L 34.3125 -36.65625 L 35.34375 -35.875 L 36.90625 -34.015625 L 37.375 -33 L 38.765625 -30.953125 L 39.65625 -28.5625 L 39.953125 -27.484375 L 40.078125 -26.21875 L 40.984375 -22.796875 L 40.734375 -18.953125 L 40.796875 -17.9375 L 40.5 -16.6875 L 40.3125 -15.421875 L 39.90625 -14.34375 L 39.65625 -13.140625 L 39.0625 -12 L 38.765625 -10.859375 L 36.90625 -7.859375 L 34.5 -5.09375 L 29.40625 -1.6875 L 25.921875 -0.59375 L 22.078125 -0.0625 L 11.28125 0 L 10.015625 0.1875 L 8.8125 0.1875 L 7.5625 0 L 6.1875 0 L 5.21875 -0.546875 Z M 17.21875 -9.65625 L 22.203125 -9.90625 L 24.359375 -10.5 L 25.5625 -11.09375 L 26.515625 -11.703125 L 27.234375 -12.65625 L 28.015625 -13.5 L 28.796875 -14.578125 L 29.703125 -16.734375 L 30.0625 -17.875 L 30.359375 -20.8125 L 30.1875 -22.6875 L 29.453125 -26.21875 L 28.6875 -27.1875 L 28.015625 -28.3125 L 26.515625 -30 L 24.484375 -31.3125 L 22.078125 -32.046875 L 20.28125 -32.15625 L 19.015625 -32.09375 L 17.765625 -32.15625 L 16.015625 -31.5 L 15.296875 -30.421875 L 15.296875 -15 L 15.125 -13.796875 L 15.359375 -12.71875 L 15.234375 -11.515625 L 15.78125 -10.203125 Z M 17.21875 -9.65625 "/></g></g></g><g fill="#ffffff" fill-opacity="1"><g transform="translate(608.26862, 618.450876)"><g><path d="M 2.875 -1.734375 L 2.875 -6.359375 L 3 -7.5 L 3.71875 -8.640625 L 7.6875 -9.90625 L 8.28125 -11.21875 L 8.40625 -13.5625 L 8.15625 -16.140625 L 8.453125 -17.34375 L 8.21875 -19.6875 L 8.34375 -20.875 L 8.40625 -23.34375 L 8.21875 -24.71875 L 8.15625 -25.734375 L 8.34375 -30.84375 L 7.5625 -31.921875 L 3.90625 -33.1875 L 3.296875 -34.3125 L 3.296875 -35.453125 L 3.1875 -36.65625 L 3.1875 -37.984375 L 3.296875 -39 L 3.296875 -40.140625 L 3.953125 -41.40625 L 5.28125 -42 L 7.625 -41.875 L 8.765625 -41.9375 L 12.421875 -41.875 L 13.734375 -42 L 21.359375 -41.9375 L 23.28125 -41.40625 L 23.765625 -40.203125 L 23.875 -39 L 23.765625 -37.921875 L 23.765625 -34.375 L 23.09375 -33.234375 L 21.953125 -32.578125 L 20.640625 -32.515625 L 19.5 -31.859375 L 18.84375 -30.78125 L 18.84375 -28.265625 L 18.953125 -27 L 18.84375 -25.796875 L 18.953125 -24.65625 L 18.84375 -22.796875 L 18.953125 -21 L 18.71875 -18.484375 L 18.953125 -16.078125 L 18.84375 -11.15625 L 19.5 -9.953125 L 23.515625 -8.703125 L 24.359375 -7.6875 L 24.1875 -4.015625 L 24.296875 -2.9375 L 24.296875 -1.625 L 23.640625 -0.546875 L 22.5 0.0625 L 4.6875 -0.0625 L 3.484375 -0.484375 Z M 2.875 -1.734375 "/></g></g></g><g fill="#ffffff" fill-opacity="1"><g transform="translate(635.503314, 618.450876)"><g><path d="M 11.515625 -1.859375 L 11.453125 -6.546875 L 11.578125 -7.734375 L 11.40625 -11.40625 L 11.453125 -12.65625 L 11.40625 -13.859375 L 11.640625 -15.65625 L 11.453125 -17.40625 L 11.453125 -19.796875 L 11.578125 -21 L 11.453125 -22.140625 L 11.640625 -24 L 11.453125 -30.59375 L 10.859375 -31.734375 L 9.78125 -32.40625 L 4.4375 -32.453125 L 2.875 -32.28125 L 1.6875 -32.875 L 1.015625 -34.203125 L 1.078125 -40.203125 L 1.6875 -41.40625 L 3 -42 L 20.875 -41.875 L 22.265625 -42.0625 L 23.453125 -42.0625 L 24.65625 -41.9375 L 25.859375 -41.9375 L 27.1875 -42.125 L 28.3125 -42.125 L 29.28125 -42 L 30.71875 -42.125 L 31.921875 -41.515625 L 32.515625 -40.3125 L 32.40625 -35.40625 L 32.515625 -34.140625 L 31.921875 -32.9375 L 30.546875 -32.40625 L 27.234375 -32.453125 L 26.15625 -32.34375 L 24.953125 -32.40625 L 23.9375 -32.34375 L 22.625 -31.796875 L 22.140625 -30.71875 L 22.265625 -29.40625 L 22.078125 -28.203125 L 22.3125 -16.265625 L 22.140625 -13.734375 L 22.265625 -12.65625 L 22.140625 -9 L 21.953125 -7.734375 L 22.140625 -6.71875 L 22.203125 -4.3125 L 22.078125 -2.9375 L 22.140625 -1.796875 L 21.65625 -0.59375 L 20.453125 -0.125 L 16.734375 -0.125 L 15.59375 0 L 14.40625 -0.125 L 13.265625 0 L 12 -0.59375 Z M 11.515625 -1.859375 "/></g></g></g></svg>