<svg xmlns="http://www.w3.org/2000/svg" xmlns:xlink="http://www.w3.org/1999/xlink" width="1600" zoomAndPan="magnify" viewBox="0 0 1200 899.99999" height="1200" preserveAspectRatio="xMidYMid meet" version="1.0"><defs><g/><clipPath id="26d7551dc2"><path d="M 61.589844 130.007812 L 401.738281 130.007812 L 401.738281 770 L 61.589844 770 Z M 61.589844 130.007812 " clip-rule="nonzero"/></clipPath><clipPath id="167df5c320"><path d="M 78.839844 130.007812 L 384.488281 130.007812 C 389.0625 130.007812 393.449219 131.824219 396.6875 135.0625 C 399.921875 138.296875 401.738281 142.683594 401.738281 147.257812 L 401.738281 752.742188 C 401.738281 757.316406 399.921875 761.703125 396.6875 764.9375 C 393.449219 768.175781 389.0625 769.992188 384.488281 769.992188 L 78.839844 769.992188 C 74.265625 769.992188 69.875 768.175781 66.640625 764.9375 C 63.40625 761.703125 61.589844 757.316406 61.589844 752.742188 L 61.589844 147.257812 C 61.589844 142.683594 63.40625 138.296875 66.640625 135.0625 C 69.875 131.824219 74.265625 130.007812 78.839844 130.007812 Z M 78.839844 130.007812 " clip-rule="nonzero"/></clipPath><clipPath id="4ef49dab7a"><path d="M 429.925781 130.007812 L 770.074219 130.007812 L 770.074219 770 L 429.925781 770 Z M 429.925781 130.007812 " clip-rule="nonzero"/></clipPath><clipPath id="318a9b5e90"><path d="M 447.175781 130.007812 L 752.824219 130.007812 C 757.398438 130.007812 761.785156 131.824219 765.023438 135.0625 C 768.257812 138.296875 770.074219 142.683594 770.074219 147.257812 L 770.074219 752.742188 C 770.074219 757.316406 768.257812 761.703125 765.023438 764.9375 C 761.785156 768.175781 757.398438 769.992188 752.824219 769.992188 L 447.175781 769.992188 C 442.601562 769.992188 438.214844 768.175781 434.976562 764.9375 C 431.742188 761.703125 429.925781 757.316406 429.925781 752.742188 L 429.925781 147.257812 C 429.925781 142.683594 431.742188 138.296875 434.976562 135.0625 C 438.214844 131.824219 442.601562 130.007812 447.175781 130.007812 Z M 447.175781 130.007812 " clip-rule="nonzero"/></clipPath><clipPath id="4420719bb5"><path d="M 798.261719 130.007812 L 1138.410156 130.007812 L 1138.410156 770 L 798.261719 770 Z M 798.261719 130.007812 " clip-rule="nonzero"/></clipPath><clipPath id="66746fcb49"><path d="M 815.511719 130.007812 L 1121.160156 130.007812 C 1125.734375 130.007812 1130.125 131.824219 1133.359375 135.0625 C 1136.59375 138.296875 1138.410156 142.683594 1138.410156 147.257812 L 1138.410156 752.742188 C 1138.410156 757.316406 1136.59375 761.703125 1133.359375 764.9375 C 1130.125 768.175781 1125.734375 769.992188 1121.160156 769.992188 L 815.511719 769.992188 C 810.9375 769.992188 806.550781 768.175781 803.3125 764.9375 C 800.078125 761.703125 798.261719 757.316406 798.261719 752.742188 L 798.261719 147.257812 C 798.261719 142.683594 800.078125 138.296875 803.3125 135.0625 C 806.550781 131.824219 810.9375 130.007812 815.511719 130.007812 Z M 815.511719 130.007812 " clip-rule="nonzero"/></clipPath><clipPath id="e9ed0462fe"><path d="M 120.703125 339.039062 L 342.703125 339.039062 L 342.703125 561 L 120.703125 561 Z M 120.703125 339.039062 " clip-rule="nonzero"/></clipPath><clipPath id="0977c4e2cc"><path d="M 489.039062 357 L 693 357 L 693 561 L 489.039062 561 Z M 489.039062 357 " clip-rule="nonzero"/></clipPath><clipPath id="016fe6b2d9"><path d="M 867.058594 339.039062 L 1069.558594 339.039062 L 1069.558594 561 L 867.058594 561 Z M 867.058594 339.039062 " clip-rule="nonzero"/></clipPath></defs><g clip-path="url(#26d7551dc2)"><g clip-path="url(#167df5c320)"><path fill="#00bf63" d="M 61.589844 130.007812 L 401.738281 130.007812 L 401.738281 770.445312 L 61.589844 770.445312 Z M 61.589844 130.007812 " fill-opacity="1" fill-rule="nonzero"/></g></g><g clip-path="url(#4ef49dab7a)"><g clip-path="url(#318a9b5e90)"><path fill="#38b6ff" d="M 429.925781 130.007812 L 770.074219 130.007812 L 770.074219 770.445312 L 429.925781 770.445312 Z M 429.925781 130.007812 " fill-opacity="1" fill-rule="nonzero"/></g></g><g clip-path="url(#4420719bb5)"><g clip-path="url(#66746fcb49)"><path fill="#d23936" d="M 798.261719 130.007812 L 1138.410156 130.007812 L 1138.410156 770.445312 L 798.261719 770.445312 Z M 798.261719 130.007812 " fill-opacity="1" fill-rule="nonzero"/></g></g><g clip-path="url(#e9ed0462fe)"><path fill="#ffffff" d="M 320.417969 427.808594 L 253.761719 427.808594 L 253.761719 361.238281 C 253.761719 348.992188 243.820312 339.046875 231.570312 339.046875 C 219.324219 339.046875 209.378906 348.992188 209.378906 361.238281 L 209.378906 427.808594 L 142.902344 427.808594 C 130.652344 427.808594 120.710938 437.75 120.710938 449.996094 C 120.710938 462.246094 130.652344 472.1875 142.902344 472.1875 L 209.382812 472.1875 L 209.382812 538.757812 C 209.382812 551.007812 219.328125 560.949219 231.578125 560.949219 C 243.824219 560.949219 253.765625 551.007812 253.765625 538.757812 L 253.765625 472.1875 L 320.417969 472.1875 C 332.667969 472.1875 342.613281 462.246094 342.613281 449.996094 C 342.613281 437.75 332.667969 427.808594 320.417969 427.808594 Z M 320.417969 427.808594 " fill-opacity="1" fill-rule="evenodd"/></g><g clip-path="url(#0977c4e2cc)"><path fill="#ffffff" d="M 675.382812 544.015625 L 505.980469 544.015625 L 505.980469 374.613281 L 607.621094 374.613281 L 607.621094 357.675781 L 505.980469 357.675781 C 496.628906 357.675781 489.039062 365.261719 489.039062 374.613281 L 489.039062 544.015625 C 489.039062 553.367188 496.628906 560.957031 505.980469 560.957031 L 675.382812 560.957031 C 684.734375 560.957031 692.324219 553.367188 692.324219 544.015625 L 692.324219 442.375 L 675.382812 442.375 Z M 675.382812 544.015625 " fill-opacity="1" fill-rule="nonzero"/></g><path fill="#ffffff" d="M 556.800781 493.46875 L 592.460938 493.46875 L 678.890625 407.039062 L 642.960938 371.109375 L 556.800781 457.265625 Z M 556.800781 493.46875 " fill-opacity="1" fill-rule="nonzero"/><path fill="#ffffff" d="M 704.300781 357.675781 L 692.324219 345.699219 C 685.699219 339.074219 674.976562 339.074219 668.371094 345.699219 L 654.9375 359.132812 L 690.867188 395.0625 L 704.300781 381.628906 C 710.921875 375.003906 710.921875 364.28125 704.300781 357.675781 Z M 704.300781 357.675781 " fill-opacity="1" fill-rule="nonzero"/><g clip-path="url(#016fe6b2d9)"><path fill="#ffffff" d="M 1059.960938 377.660156 L 1016.558594 377.660156 L 1016.558594 370.859375 C 1016.558594 369.820312 1016.503906 368.78125 1016.402344 367.746094 C 1016.296875 366.710938 1016.144531 365.683594 1015.941406 364.664062 C 1015.734375 363.644531 1015.480469 362.636719 1015.179688 361.640625 C 1014.875 360.644531 1014.527344 359.667969 1014.125 358.707031 C 1013.726562 357.746094 1013.28125 356.804688 1012.792969 355.890625 C 1012.300781 354.972656 1011.765625 354.082031 1011.1875 353.214844 C 1010.609375 352.351562 1009.988281 351.515625 1009.328125 350.710938 C 1008.667969 349.90625 1007.972656 349.136719 1007.234375 348.402344 C 1006.5 347.667969 1005.730469 346.96875 1004.925781 346.308594 C 1004.121094 345.648438 1003.289062 345.03125 1002.421875 344.449219 C 1001.558594 343.871094 1000.667969 343.339844 999.75 342.847656 C 998.832031 342.355469 997.894531 341.910156 996.933594 341.511719 C 995.972656 341.113281 994.992188 340.761719 993.996094 340.460938 C 993.003906 340.15625 991.996094 339.902344 990.976562 339.699219 C 989.953125 339.496094 988.925781 339.339844 987.890625 339.238281 C 986.855469 339.132812 985.820312 339.082031 984.777344 339.082031 L 951.886719 339.082031 C 950.847656 339.082031 949.808594 339.132812 948.773438 339.238281 C 947.738281 339.339844 946.710938 339.496094 945.691406 339.699219 C 944.671875 339.902344 943.664062 340.15625 942.667969 340.460938 C 941.671875 340.761719 940.695312 341.113281 939.734375 341.511719 C 938.773438 341.910156 937.832031 342.355469 936.917969 342.847656 C 936 343.339844 935.109375 343.871094 934.242188 344.449219 C 933.378906 345.03125 932.542969 345.648438 931.738281 346.308594 C 930.9375 346.96875 930.164062 347.667969 929.429688 348.402344 C 928.695312 349.136719 927.996094 349.90625 927.335938 350.710938 C 926.675781 351.515625 926.058594 352.351562 925.476562 353.214844 C 924.898438 354.082031 924.367188 354.972656 923.875 355.890625 C 923.382812 356.804688 922.9375 357.746094 922.539062 358.707031 C 922.140625 359.667969 921.789062 360.644531 921.488281 361.640625 C 921.183594 362.636719 920.929688 363.644531 920.726562 364.664062 C 920.523438 365.683594 920.367188 366.710938 920.265625 367.746094 C 920.160156 368.78125 920.109375 369.820312 920.109375 370.859375 L 920.109375 377.660156 L 876.703125 377.660156 C 876.070312 377.660156 875.445312 377.722656 874.824219 377.847656 C 874.203125 377.96875 873.597656 378.152344 873.015625 378.394531 C 872.429688 378.636719 871.871094 378.933594 871.347656 379.285156 C 870.820312 379.636719 870.332031 380.039062 869.882812 380.484375 C 869.4375 380.933594 869.035156 381.421875 868.683594 381.945312 C 868.332031 382.472656 868.035156 383.03125 867.792969 383.613281 C 867.550781 384.199219 867.367188 384.804688 867.246094 385.425781 C 867.121094 386.046875 867.058594 386.671875 867.058594 387.304688 C 867.058594 387.9375 867.121094 388.566406 867.246094 389.1875 C 867.367188 389.808594 867.550781 390.410156 867.792969 390.996094 C 868.035156 391.582031 868.332031 392.136719 868.683594 392.664062 C 869.035156 393.191406 869.4375 393.679688 869.882812 394.125 C 870.332031 394.574219 870.820312 394.972656 871.347656 395.324219 C 871.871094 395.675781 872.429688 395.972656 873.015625 396.214844 C 873.597656 396.457031 874.203125 396.640625 874.824219 396.765625 C 875.445312 396.890625 876.070312 396.949219 876.703125 396.949219 L 891.171875 396.949219 L 891.171875 528.992188 C 891.175781 530.039062 891.226562 531.082031 891.332031 532.121094 C 891.433594 533.164062 891.589844 534.195312 891.796875 535.222656 C 892 536.25 892.253906 537.261719 892.558594 538.261719 C 892.867188 539.261719 893.21875 540.246094 893.621094 541.210938 C 894.019531 542.179688 894.46875 543.125 894.964844 544.046875 C 895.457031 544.96875 895.996094 545.863281 896.578125 546.730469 C 897.160156 547.601562 897.78125 548.441406 898.445312 549.25 C 899.113281 550.054688 899.8125 550.832031 900.554688 551.570312 C 901.292969 552.308594 902.070312 553.011719 902.878906 553.671875 C 903.6875 554.335938 904.527344 554.957031 905.398438 555.539062 C 906.265625 556.121094 907.164062 556.65625 908.085938 557.148438 C 909.011719 557.640625 909.953125 558.089844 910.921875 558.488281 C 911.886719 558.886719 912.871094 559.238281 913.875 559.542969 C 914.875 559.847656 915.886719 560.101562 916.914062 560.304688 C 917.941406 560.507812 918.972656 560.660156 920.015625 560.761719 C 921.054688 560.867188 922.101562 560.917969 923.144531 560.917969 L 1013.570312 560.917969 C 1014.613281 560.914062 1015.65625 560.863281 1016.695312 560.757812 C 1017.734375 560.65625 1018.769531 560.5 1019.792969 560.296875 C 1020.816406 560.089844 1021.832031 559.835938 1022.832031 559.53125 C 1023.832031 559.226562 1024.8125 558.875 1025.777344 558.472656 C 1026.742188 558.074219 1027.6875 557.625 1028.609375 557.132812 C 1029.53125 556.640625 1030.425781 556.101562 1031.292969 555.523438 C 1032.164062 554.941406 1033 554.320312 1033.808594 553.65625 C 1034.617188 552.992188 1035.390625 552.292969 1036.128906 551.550781 C 1036.867188 550.8125 1037.570312 550.039062 1038.230469 549.230469 C 1038.894531 548.425781 1039.519531 547.585938 1040.097656 546.71875 C 1040.679688 545.847656 1041.214844 544.953125 1041.710938 544.03125 C 1042.203125 543.109375 1042.648438 542.167969 1043.050781 541.203125 C 1043.453125 540.238281 1043.804688 539.253906 1044.109375 538.253906 C 1044.414062 537.253906 1044.667969 536.242188 1044.871094 535.21875 C 1045.078125 534.191406 1045.230469 533.160156 1045.335938 532.121094 C 1045.441406 531.078125 1045.492188 530.039062 1045.492188 528.992188 L 1045.492188 396.949219 L 1059.960938 396.949219 C 1060.59375 396.949219 1061.222656 396.890625 1061.84375 396.765625 C 1062.464844 396.640625 1063.066406 396.457031 1063.652344 396.214844 C 1064.238281 395.972656 1064.792969 395.675781 1065.320312 395.324219 C 1065.847656 394.972656 1066.332031 394.574219 1066.78125 394.125 C 1067.230469 393.679688 1067.628906 393.191406 1067.980469 392.664062 C 1068.332031 392.136719 1068.628906 391.582031 1068.871094 390.996094 C 1069.113281 390.410156 1069.296875 389.808594 1069.421875 389.1875 C 1069.542969 388.566406 1069.605469 387.9375 1069.605469 387.304688 C 1069.605469 386.671875 1069.542969 386.046875 1069.421875 385.425781 C 1069.296875 384.804688 1069.113281 384.199219 1068.871094 383.613281 C 1068.628906 383.03125 1068.332031 382.472656 1067.980469 381.945312 C 1067.628906 381.421875 1067.230469 380.933594 1066.78125 380.484375 C 1066.332031 380.039062 1065.847656 379.636719 1065.320312 379.285156 C 1064.792969 378.933594 1064.238281 378.636719 1063.652344 378.394531 C 1063.066406 378.152344 1062.464844 377.96875 1061.84375 377.847656 C 1061.222656 377.722656 1060.59375 377.660156 1059.960938 377.660156 Z M 939.398438 370.859375 C 939.398438 370.039062 939.476562 369.226562 939.636719 368.425781 C 939.796875 367.621094 940.035156 366.839844 940.347656 366.082031 C 940.664062 365.324219 941.046875 364.601562 941.503906 363.921875 C 941.957031 363.238281 942.476562 362.609375 943.054688 362.027344 C 943.636719 361.449219 944.265625 360.929688 944.949219 360.476562 C 945.628906 360.019531 946.351562 359.636719 947.109375 359.320312 C 947.867188 359.007812 948.648438 358.769531 949.453125 358.609375 C 950.253906 358.449219 951.066406 358.371094 951.886719 358.371094 L 984.777344 358.371094 C 985.597656 358.371094 986.410156 358.449219 987.214844 358.609375 C 988.019531 358.769531 988.800781 359.007812 989.558594 359.320312 C 990.316406 359.636719 991.035156 360.019531 991.71875 360.476562 C 992.398438 360.929688 993.03125 361.449219 993.609375 362.027344 C 994.191406 362.609375 994.707031 363.238281 995.164062 363.921875 C 995.617188 364.601562 996.003906 365.324219 996.316406 366.082031 C 996.632812 366.839844 996.867188 367.621094 997.027344 368.425781 C 997.1875 369.226562 997.269531 370.039062 997.269531 370.859375 L 997.269531 377.660156 L 939.398438 377.660156 Z M 1026.203125 528.992188 C 1026.199219 529.820312 1026.117188 530.640625 1025.953125 531.453125 C 1025.789062 532.265625 1025.546875 533.054688 1025.230469 533.820312 C 1024.910156 534.585938 1024.519531 535.3125 1024.058594 536 C 1023.597656 536.6875 1023.074219 537.328125 1022.488281 537.914062 C 1021.902344 538.5 1021.265625 539.023438 1020.578125 539.484375 C 1019.886719 539.945312 1019.160156 540.332031 1018.394531 540.652344 C 1017.632812 540.972656 1016.84375 541.210938 1016.03125 541.375 C 1015.21875 541.539062 1014.398438 541.625 1013.570312 541.628906 L 923.144531 541.628906 C 922.316406 541.628906 921.492188 541.546875 920.675781 541.382812 C 919.863281 541.222656 919.070312 540.984375 918.304688 540.667969 C 917.535156 540.347656 916.804688 539.960938 916.113281 539.5 C 915.421875 539.039062 914.78125 538.515625 914.195312 537.929688 C 913.605469 537.34375 913.078125 536.703125 912.617188 536.015625 C 912.152344 535.324219 911.761719 534.597656 911.441406 533.832031 C 911.121094 533.0625 910.878906 532.273438 910.714844 531.460938 C 910.550781 530.644531 910.464844 529.824219 910.460938 528.992188 L 910.460938 396.949219 L 1026.203125 396.949219 Z M 1026.203125 528.992188 " fill-opacity="1" fill-rule="nonzero"/></g><path fill="#ffffff" d="M 944.21875 418.605469 C 943.585938 418.605469 942.960938 418.664062 942.339844 418.789062 C 941.71875 418.914062 941.113281 419.097656 940.53125 419.339844 C 939.945312 419.582031 939.386719 419.878906 938.863281 420.230469 C 938.335938 420.582031 937.847656 420.980469 937.398438 421.429688 C 936.953125 421.875 936.550781 422.363281 936.199219 422.890625 C 935.847656 423.417969 935.550781 423.972656 935.308594 424.558594 C 935.066406 425.144531 934.882812 425.746094 934.761719 426.367188 C 934.636719 426.988281 934.574219 427.617188 934.574219 428.25 L 934.574219 515.054688 C 934.574219 515.6875 934.636719 516.316406 934.761719 516.9375 C 934.882812 517.558594 935.066406 518.160156 935.308594 518.746094 C 935.550781 519.332031 935.847656 519.886719 936.199219 520.414062 C 936.550781 520.941406 936.953125 521.425781 937.398438 521.875 C 937.847656 522.324219 938.335938 522.722656 938.863281 523.074219 C 939.386719 523.425781 939.945312 523.722656 940.53125 523.964844 C 941.113281 524.207031 941.71875 524.390625 942.339844 524.515625 C 942.960938 524.636719 943.585938 524.699219 944.21875 524.699219 C 944.855469 524.699219 945.480469 524.636719 946.101562 524.515625 C 946.722656 524.390625 947.328125 524.207031 947.910156 523.964844 C 948.496094 523.722656 949.050781 523.425781 949.578125 523.074219 C 950.105469 522.722656 950.59375 522.324219 951.039062 521.875 C 951.488281 521.425781 951.886719 520.941406 952.238281 520.414062 C 952.59375 519.886719 952.890625 519.332031 953.132812 518.746094 C 953.375 518.160156 953.554688 517.558594 953.679688 516.9375 C 953.804688 516.316406 953.867188 515.6875 953.867188 515.054688 L 953.867188 428.25 C 953.867188 427.617188 953.804688 426.988281 953.679688 426.367188 C 953.554688 425.746094 953.375 425.144531 953.132812 424.558594 C 952.890625 423.972656 952.59375 423.417969 952.238281 422.890625 C 951.886719 422.363281 951.488281 421.875 951.039062 421.429688 C 950.59375 420.980469 950.105469 420.582031 949.578125 420.230469 C 949.050781 419.878906 948.496094 419.582031 947.910156 419.339844 C 947.328125 419.097656 946.722656 418.914062 946.101562 418.789062 C 945.480469 418.664062 944.855469 418.605469 944.21875 418.605469 Z M 944.21875 418.605469 " fill-opacity="1" fill-rule="nonzero"/><path fill="#ffffff" d="M 992.445312 418.605469 C 991.8125 418.605469 991.183594 418.664062 990.5625 418.789062 C 989.941406 418.914062 989.339844 419.097656 988.753906 419.339844 C 988.167969 419.582031 987.613281 419.878906 987.085938 420.230469 C 986.5625 420.582031 986.074219 420.980469 985.625 421.429688 C 985.179688 421.875 984.777344 422.363281 984.425781 422.890625 C 984.074219 423.417969 983.777344 423.972656 983.535156 424.558594 C 983.292969 425.144531 983.109375 425.746094 982.984375 426.367188 C 982.863281 426.988281 982.800781 427.617188 982.800781 428.25 L 982.800781 515.054688 C 982.800781 515.6875 982.863281 516.316406 982.984375 516.9375 C 983.109375 517.558594 983.292969 518.160156 983.535156 518.746094 C 983.777344 519.332031 984.074219 519.886719 984.425781 520.414062 C 984.777344 520.941406 985.179688 521.425781 985.625 521.875 C 986.074219 522.324219 986.5625 522.722656 987.085938 523.074219 C 987.613281 523.425781 988.167969 523.722656 988.753906 523.964844 C 989.339844 524.207031 989.941406 524.390625 990.5625 524.515625 C 991.183594 524.636719 991.8125 524.699219 992.445312 524.699219 C 993.078125 524.699219 993.707031 524.636719 994.328125 524.515625 C 994.949219 524.390625 995.550781 524.207031 996.136719 523.964844 C 996.722656 523.722656 997.277344 523.425781 997.804688 523.074219 C 998.332031 522.722656 998.816406 522.324219 999.265625 521.875 C 999.714844 521.425781 1000.113281 520.941406 1000.464844 520.414062 C 1000.816406 519.886719 1001.113281 519.332031 1001.355469 518.746094 C 1001.597656 518.160156 1001.78125 517.558594 1001.90625 516.9375 C 1002.027344 516.316406 1002.089844 515.6875 1002.089844 515.054688 L 1002.089844 428.25 C 1002.089844 427.617188 1002.027344 426.988281 1001.90625 426.367188 C 1001.78125 425.746094 1001.597656 425.144531 1001.355469 424.558594 C 1001.113281 423.972656 1000.816406 423.417969 1000.464844 422.890625 C 1000.113281 422.363281 999.714844 421.875 999.265625 421.429688 C 998.816406 420.980469 998.332031 420.582031 997.804688 420.230469 C 997.277344 419.878906 996.722656 419.582031 996.136719 419.339844 C 995.550781 419.097656 994.949219 418.914062 994.328125 418.789062 C 993.707031 418.664062 993.078125 418.605469 992.445312 418.605469 Z M 992.445312 418.605469 " fill-opacity="1" fill-rule="nonzero"/><g fill="#ffffff" fill-opacity="1"><g transform="translate(166.268582, 701.156119)"><g><path d="M 35.40625 0.125 L 34.140625 0 L 32.765625 -0.59375 L 31.5625 -1.5 L 31.203125 -2.578125 L 30.65625 -3.71875 L 29.515625 -4.6875 L 28.203125 -5.34375 L 26.875 -5.15625 L 25.796875 -5.28125 L 19.921875 -5.21875 L 18.84375 -5.40625 L 16.3125 -5.15625 L 15.1875 -5.34375 L 13.921875 -4.6875 L 12.78125 -3.546875 L 11.703125 -1.5625 L 10.5625 -0.484375 L 9.1875 -0.0625 L 5.8125 0.0625 L 4.625 -0.0625 L 2.28125 0.0625 L 1.078125 -0.296875 L 0.78125 -1.796875 L 1.140625 -3 L 2.34375 -5.40625 L 2.640625 -6.484375 L 3.296875 -7.3125 L 4.203125 -9.71875 L 5.28125 -11.640625 L 5.703125 -12.84375 L 6.296875 -13.734375 L 6.65625 -15.0625 L 12.78125 -27.90625 L 13.140625 -28.984375 L 13.796875 -30.125 L 14.09375 -31.3125 L 14.765625 -32.21875 L 17.15625 -37.734375 L 17.703125 -38.578125 L 18.125 -39.78125 L 18.65625 -40.796875 L 19.734375 -41.8125 L 21.65625 -42.484375 L 23.640625 -41.875 L 24.65625 -40.796875 L 25.796875 -38.703125 L 26.15625 -37.625 L 26.8125 -36.546875 L 27.1875 -35.34375 L 31.140625 -27 L 31.5625 -25.734375 L 32.8125 -23.515625 L 33.1875 -22.5625 L 33.71875 -21.65625 L 34.078125 -20.34375 L 34.6875 -19.203125 L 35.28125 -18.296875 L 37.5625 -12.84375 L 38.765625 -10.6875 L 39.59375 -8.453125 L 41.21875 -5.34375 L 42.125 -3.125 L 42.546875 -1.734375 L 42.359375 -0.296875 L 40.6875 0 L 38.8125 0.0625 L 37.6875 -0.0625 Z M 21.78125 -14.8125 L 24.1875 -14.875 L 25.078125 -15.359375 L 25.3125 -16.4375 L 22.5 -23.046875 L 21.65625 -23.515625 L 21 -22.984375 L 18.1875 -16.5 L 18.234375 -15.359375 L 19.203125 -14.9375 L 20.578125 -15.0625 Z M 21.78125 -14.8125 "/></g></g></g><g fill="#ffffff" fill-opacity="1"><g transform="translate(209.820101, 701.156119)"><g><path d="M 4.5 -1.859375 L 4.625 -4.140625 L 4.4375 -8.9375 L 4.5625 -10.140625 L 4.4375 -14.9375 L 4.625 -17.28125 L 4.4375 -18.546875 L 4.625 -19.6875 L 4.4375 -22.265625 L 4.625 -24.546875 L 4.375 -29.34375 L 4.5625 -30.546875 L 4.375 -31.734375 L 4.5625 -33.0625 L 4.4375 -35.34375 L 4.5 -36.546875 L 4.375 -37.734375 L 4.375 -40.203125 L 5.28125 -41.34375 L 6.359375 -42 L 7.625 -41.9375 L 8.703125 -42 L 9.90625 -41.875 L 13.734375 -42 L 14.9375 -41.875 L 23.453125 -41.8125 L 25.921875 -41.34375 L 29.21875 -40.265625 L 30.421875 -39.65625 L 32.640625 -38.28125 L 34.3125 -36.65625 L 35.34375 -35.875 L 36.90625 -34.015625 L 37.375 -33 L 38.765625 -30.953125 L 39.65625 -28.5625 L 39.953125 -27.484375 L 40.078125 -26.21875 L 40.984375 -22.796875 L 40.734375 -18.953125 L 40.796875 -17.9375 L 40.5 -16.6875 L 40.3125 -15.421875 L 39.90625 -14.34375 L 39.65625 -13.140625 L 39.0625 -12 L 38.765625 -10.859375 L 36.90625 -7.859375 L 34.5 -5.09375 L 29.40625 -1.6875 L 25.921875 -0.59375 L 22.078125 -0.0625 L 11.28125 0 L 10.015625 0.1875 L 8.8125 0.1875 L 7.5625 0 L 6.1875 0 L 5.21875 -0.546875 Z M 17.21875 -9.65625 L 22.203125 -9.90625 L 24.359375 -10.5 L 25.5625 -11.09375 L 26.515625 -11.703125 L 27.234375 -12.65625 L 28.015625 -13.5 L 28.796875 -14.578125 L 29.703125 -16.734375 L 30.0625 -17.875 L 30.359375 -20.8125 L 30.1875 -22.6875 L 29.453125 -26.21875 L 28.6875 -27.1875 L 28.015625 -28.3125 L 26.515625 -30 L 24.484375 -31.3125 L 22.078125 -32.046875 L 20.28125 -32.15625 L 19.015625 -32.09375 L 17.765625 -32.15625 L 16.015625 -31.5 L 15.296875 -30.421875 L 15.296875 -15 L 15.125 -13.796875 L 15.359375 -12.71875 L 15.234375 -11.515625 L 15.78125 -10.203125 Z M 17.21875 -9.65625 "/></g></g></g><g fill="#ffffff" fill-opacity="1"><g transform="translate(253.431611, 701.156119)"><g><path d="M 4.5 -1.859375 L 4.625 -4.140625 L 4.4375 -8.9375 L 4.5625 -10.140625 L 4.4375 -14.9375 L 4.625 -17.28125 L 4.4375 -18.546875 L 4.625 -19.6875 L 4.4375 -22.265625 L 4.625 -24.546875 L 4.375 -29.34375 L 4.5625 -30.546875 L 4.375 -31.734375 L 4.5625 -33.0625 L 4.4375 -35.34375 L 4.5 -36.546875 L 4.375 -37.734375 L 4.375 -40.203125 L 5.28125 -41.34375 L 6.359375 -42 L 7.625 -41.9375 L 8.703125 -42 L 9.90625 -41.875 L 13.734375 -42 L 14.9375 -41.875 L 23.453125 -41.8125 L 25.921875 -41.34375 L 29.21875 -40.265625 L 30.421875 -39.65625 L 32.640625 -38.28125 L 34.3125 -36.65625 L 35.34375 -35.875 L 36.90625 -34.015625 L 37.375 -33 L 38.765625 -30.953125 L 39.65625 -28.5625 L 39.953125 -27.484375 L 40.078125 -26.21875 L 40.984375 -22.796875 L 40.734375 -18.953125 L 40.796875 -17.9375 L 40.5 -16.6875 L 40.3125 -15.421875 L 39.90625 -14.34375 L 39.65625 -13.140625 L 39.0625 -12 L 38.765625 -10.859375 L 36.90625 -7.859375 L 34.5 -5.09375 L 29.40625 -1.6875 L 25.921875 -0.59375 L 22.078125 -0.0625 L 11.28125 0 L 10.015625 0.1875 L 8.8125 0.1875 L 7.5625 0 L 6.1875 0 L 5.21875 -0.546875 Z M 17.21875 -9.65625 L 22.203125 -9.90625 L 24.359375 -10.5 L 25.5625 -11.09375 L 26.515625 -11.703125 L 27.234375 -12.65625 L 28.015625 -13.5 L 28.796875 -14.578125 L 29.703125 -16.734375 L 30.0625 -17.875 L 30.359375 -20.8125 L 30.1875 -22.6875 L 29.453125 -26.21875 L 28.6875 -27.1875 L 28.015625 -28.3125 L 26.515625 -30 L 24.484375 -31.3125 L 22.078125 -32.046875 L 20.28125 -32.15625 L 19.015625 -32.09375 L 17.765625 -32.15625 L 16.015625 -31.5 L 15.296875 -30.421875 L 15.296875 -15 L 15.125 -13.796875 L 15.359375 -12.71875 L 15.234375 -11.515625 L 15.78125 -10.203125 Z M 17.21875 -9.65625 "/></g></g></g><g fill="#ffffff" fill-opacity="1"><g transform="translate(862.356417, 701.156119)"><g><path d="M 18.484375 0.1875 L 16.015625 -0.0625 L 14.8125 0.125 L 7.5 0 L 6.296875 0.125 L 5.09375 -0.484375 L 4.5 -2.34375 L 4.5 -5.40625 L 4.375 -6.546875 L 4.4375 -40.078125 L 4.984375 -41.34375 L 6.296875 -41.875 L 7.5 -41.8125 L 8.578125 -42 L 22.265625 -41.875 L 25.796875 -41.34375 L 27.0625 -41.046875 L 28.078125 -40.5625 L 29.28125 -40.3125 L 30.421875 -39.65625 L 33.484375 -37.625 L 36.65625 -34.078125 L 38.703125 -30.90625 L 39.1875 -29.765625 L 39.953125 -27.484375 L 40.796875 -22.734375 L 40.859375 -21 L 40.6875 -19.078125 L 40.6875 -17.8125 L 40.5 -16.625 L 40.140625 -15.59375 L 39.90625 -14.34375 L 39.59375 -13.203125 L 38.640625 -10.859375 L 37.921875 -9.90625 L 37.3125 -8.703125 L 34.375 -4.921875 L 30.359375 -2.21875 L 27.546875 -1.015625 L 25.078125 -0.59375 L 23.34375 -0.0625 L 22.140625 -0.0625 L 20.28125 0.1875 Z M 18.296875 -9.65625 L 20.09375 -9.71875 L 22.6875 -10.015625 L 24.421875 -10.5625 L 26.453125 -11.875 L 28.6875 -14.40625 L 29.703125 -16.625 L 30.296875 -20.8125 L 29.34375 -26.09375 L 28.796875 -27.1875 L 28.203125 -28.203125 L 27.296875 -29.28125 L 26.40625 -30.125 L 25.5 -30.78125 L 24.421875 -31.3125 L 22.078125 -31.984375 L 20.34375 -32.15625 L 17.8125 -32.09375 L 15.90625 -31.6875 L 15.296875 -30.296875 L 15.1875 -29.28125 L 15.296875 -21 L 15.0625 -18 L 15.296875 -15.0625 L 15.234375 -12.59375 L 15.296875 -11.578125 L 15.78125 -10.4375 L 17.15625 -9.78125 Z M 18.296875 -9.65625 "/></g></g></g><g fill="#ffffff" fill-opacity="1"><g transform="translate(905.967926, 701.156119)"><g><path d="M 4.3125 -1.734375 L 4.5625 -2.9375 L 4.625 -4.140625 L 4.5 -6.484375 L 4.5 -7.6875 L 4.375 -9.0625 L 4.5625 -10.140625 L 4.5 -11.28125 L 4.625 -12.59375 L 4.4375 -13.859375 L 4.5625 -16.265625 L 4.375 -18.59375 L 4.5625 -19.859375 L 4.5625 -30.59375 L 4.4375 -31.6875 L 4.5625 -32.9375 L 4.3125 -36 L 4.5625 -37.734375 L 4.4375 -40.140625 L 5.046875 -41.453125 L 6.78125 -41.875 L 14.640625 -42.0625 L 15.71875 -41.9375 L 18.0625 -42 L 19.265625 -41.875 L 21.90625 -42 L 23.09375 -41.8125 L 24.1875 -41.9375 L 28.984375 -41.875 L 30.234375 -41.34375 L 30.84375 -40.140625 L 30.65625 -39 L 30.59375 -37.6875 L 30.78125 -36.546875 L 30.90625 -34.078125 L 30.234375 -33 L 28.984375 -32.34375 L 17.453125 -32.28125 L 15.59375 -31.734375 L 15 -30 L 15.125 -28.140625 L 15.84375 -27.0625 L 16.859375 -26.40625 L 21.59375 -26.453125 L 22.984375 -26.34375 L 24.234375 -26.34375 L 25.4375 -26.453125 L 27.84375 -26.40625 L 28.859375 -25.734375 L 29.40625 -24.59375 L 29.515625 -23.40625 L 29.40625 -18.65625 L 28.796875 -17.515625 L 27.59375 -16.859375 L 26.515625 -16.796875 L 25.265625 -16.921875 L 23.640625 -16.796875 L 20.453125 -16.984375 L 19.265625 -16.859375 L 16.921875 -16.859375 L 15.84375 -16.203125 L 15.296875 -14.9375 L 15.234375 -12 L 15.78125 -10.140625 L 17.046875 -9.421875 L 18.359375 -9.546875 L 19.6875 -9.421875 L 20.8125 -9.59375 L 28.734375 -9.484375 L 30.546875 -8.875 L 31.3125 -7.6875 L 31.203125 -6.546875 L 31.265625 -2.8125 L 31.140625 -1.6875 L 30.59375 -0.546875 L 29.34375 0.0625 L 28.203125 0.1875 L 24.546875 -0.0625 L 20.875 0.125 L 19.796875 -0.0625 L 6.234375 0.0625 L 5.09375 -0.59375 Z M 4.3125 -1.734375 "/></g></g></g><g fill="#ffffff" fill-opacity="1"><g transform="translate(940.341227, 701.156119)"><g><path d="M 4.5 -1.734375 L 4.375 -3 L 4.625 -4.140625 L 4.5 -5.34375 L 4.5625 -12.65625 L 4.4375 -13.734375 L 4.375 -16.140625 L 4.5625 -17.34375 L 4.375 -19.734375 L 4.5625 -20.875 L 4.375 -23.453125 L 4.5625 -24.59375 L 4.4375 -25.796875 L 4.625 -26.875 L 4.4375 -28.140625 L 4.5625 -29.34375 L 4.5 -30.484375 L 4.6875 -31.796875 L 4.5625 -32.9375 L 4.375 -34.140625 L 4.5625 -35.40625 L 4.6875 -36.546875 L 4.3125 -39.65625 L 5.09375 -41.28125 L 6.84375 -41.9375 L 13.078125 -42.0625 L 14.640625 -41.34375 L 15.234375 -39.546875 L 15.359375 -36.59375 L 15.234375 -35.28125 L 15.421875 -25.921875 L 15.234375 -24.65625 L 15.421875 -23.34375 L 15.234375 -21.65625 L 15.296875 -18.65625 L 15.1875 -17.40625 L 15.296875 -16.203125 L 15.234375 -14.875 L 15.421875 -13.734375 L 15.359375 -11.515625 L 15.71875 -10.203125 L 16.984375 -9.65625 L 27.546875 -9.546875 L 28.859375 -9.71875 L 29.8125 -9.125 L 30.59375 -7.796875 L 30.421875 -6.65625 L 30.59375 -5.34375 L 30.484375 -4.265625 L 30.421875 -3.0625 L 30.546875 -1.734375 L 29.875 -0.65625 L 28.203125 -0.0625 L 6.953125 0.0625 L 5.046875 -0.65625 Z M 4.5 -1.734375 "/></g></g></g><g fill="#ffffff" fill-opacity="1"><g transform="translate(972.614937, 701.156119)"><g><path d="M 4.3125 -1.734375 L 4.5625 -2.9375 L 4.625 -4.140625 L 4.5 -6.484375 L 4.5 -7.6875 L 4.375 -9.0625 L 4.5625 -10.140625 L 4.5 -11.28125 L 4.625 -12.59375 L 4.4375 -13.859375 L 4.5625 -16.265625 L 4.375 -18.59375 L 4.5625 -19.859375 L 4.5625 -30.59375 L 4.4375 -31.6875 L 4.5625 -32.9375 L 4.3125 -36 L 4.5625 -37.734375 L 4.4375 -40.140625 L 5.046875 -41.453125 L 6.78125 -41.875 L 14.640625 -42.0625 L 15.71875 -41.9375 L 18.0625 -42 L 19.265625 -41.875 L 21.90625 -42 L 23.09375 -41.8125 L 24.1875 -41.9375 L 28.984375 -41.875 L 30.234375 -41.34375 L 30.84375 -40.140625 L 30.65625 -39 L 30.59375 -37.6875 L 30.78125 -36.546875 L 30.90625 -34.078125 L 30.234375 -33 L 28.984375 -32.34375 L 17.453125 -32.28125 L 15.59375 -31.734375 L 15 -30 L 15.125 -28.140625 L 15.84375 -27.0625 L 16.859375 -26.40625 L 21.59375 -26.453125 L 22.984375 -26.34375 L 24.234375 -26.34375 L 25.4375 -26.453125 L 27.84375 -26.40625 L 28.859375 -25.734375 L 29.40625 -24.59375 L 29.515625 -23.40625 L 29.40625 -18.65625 L 28.796875 -17.515625 L 27.59375 -16.859375 L 26.515625 -16.796875 L 25.265625 -16.921875 L 23.640625 -16.796875 L 20.453125 -16.984375 L 19.265625 -16.859375 L 16.921875 -16.859375 L 15.84375 -16.203125 L 15.296875 -14.9375 L 15.234375 -12 L 15.78125 -10.140625 L 17.046875 -9.421875 L 18.359375 -9.546875 L 19.6875 -9.421875 L 20.8125 -9.59375 L 28.734375 -9.484375 L 30.546875 -8.875 L 31.3125 -7.6875 L 31.203125 -6.546875 L 31.265625 -2.8125 L 31.140625 -1.6875 L 30.59375 -0.546875 L 29.34375 0.0625 L 28.203125 0.1875 L 24.546875 -0.0625 L 20.875 0.125 L 19.796875 -0.0625 L 6.234375 0.0625 L 5.09375 -0.59375 Z M 4.3125 -1.734375 "/></g></g></g><g fill="#ffffff" fill-opacity="1"><g transform="translate(1006.988238, 701.156119)"><g><path d="M 11.515625 -1.859375 L 11.453125 -6.546875 L 11.578125 -7.734375 L 11.40625 -11.40625 L 11.453125 -12.65625 L 11.40625 -13.859375 L 11.640625 -15.65625 L 11.453125 -17.40625 L 11.453125 -19.796875 L 11.578125 -21 L 11.453125 -22.140625 L 11.640625 -24 L 11.453125 -30.59375 L 10.859375 -31.734375 L 9.78125 -32.40625 L 4.4375 -32.453125 L 2.875 -32.28125 L 1.6875 -32.875 L 1.015625 -34.203125 L 1.078125 -40.203125 L 1.6875 -41.40625 L 3 -42 L 20.875 -41.875 L 22.265625 -42.0625 L 23.453125 -42.0625 L 24.65625 -41.9375 L 25.859375 -41.9375 L 27.1875 -42.125 L 28.3125 -42.125 L 29.28125 -42 L 30.71875 -42.125 L 31.921875 -41.515625 L 32.515625 -40.3125 L 32.40625 -35.40625 L 32.515625 -34.140625 L 31.921875 -32.9375 L 30.546875 -32.40625 L 27.234375 -32.453125 L 26.15625 -32.34375 L 24.953125 -32.40625 L 23.9375 -32.34375 L 22.625 -31.796875 L 22.140625 -30.71875 L 22.265625 -29.40625 L 22.078125 -28.203125 L 22.3125 -16.265625 L 22.140625 -13.734375 L 22.265625 -12.65625 L 22.140625 -9 L 21.953125 -7.734375 L 22.140625 -6.71875 L 22.203125 -4.3125 L 22.078125 -2.9375 L 22.140625 -1.796875 L 21.65625 -0.59375 L 20.453125 -0.125 L 16.734375 -0.125 L 15.59375 0 L 14.40625 -0.125 L 13.265625 0 L 12 -0.59375 Z M 11.515625 -1.859375 "/></g></g></g><g fill="#ffffff" fill-opacity="1"><g transform="translate(1039.92178, 701.156119)"><g><path d="M 4.3125 -1.734375 L 4.5625 -2.9375 L 4.625 -4.140625 L 4.5 -6.484375 L 4.5 -7.6875 L 4.375 -9.0625 L 4.5625 -10.140625 L 4.5 -11.28125 L 4.625 -12.59375 L 4.4375 -13.859375 L 4.5625 -16.265625 L 4.375 -18.59375 L 4.5625 -19.859375 L 4.5625 -30.59375 L 4.4375 -31.6875 L 4.5625 -32.9375 L 4.3125 -36 L 4.5625 -37.734375 L 4.4375 -40.140625 L 5.046875 -41.453125 L 6.78125 -41.875 L 14.640625 -42.0625 L 15.71875 -41.9375 L 18.0625 -42 L 19.265625 -41.875 L 21.90625 -42 L 23.09375 -41.8125 L 24.1875 -41.9375 L 28.984375 -41.875 L 30.234375 -41.34375 L 30.84375 -40.140625 L 30.65625 -39 L 30.59375 -37.6875 L 30.78125 -36.546875 L 30.90625 -34.078125 L 30.234375 -33 L 28.984375 -32.34375 L 17.453125 -32.28125 L 15.59375 -31.734375 L 15 -30 L 15.125 -28.140625 L 15.84375 -27.0625 L 16.859375 -26.40625 L 21.59375 -26.453125 L 22.984375 -26.34375 L 24.234375 -26.34375 L 25.4375 -26.453125 L 27.84375 -26.40625 L 28.859375 -25.734375 L 29.40625 -24.59375 L 29.515625 -23.40625 L 29.40625 -18.65625 L 28.796875 -17.515625 L 27.59375 -16.859375 L 26.515625 -16.796875 L 25.265625 -16.921875 L 23.640625 -16.796875 L 20.453125 -16.984375 L 19.265625 -16.859375 L 16.921875 -16.859375 L 15.84375 -16.203125 L 15.296875 -14.9375 L 15.234375 -12 L 15.78125 -10.140625 L 17.046875 -9.421875 L 18.359375 -9.546875 L 19.6875 -9.421875 L 20.8125 -9.59375 L 28.734375 -9.484375 L 30.546875 -8.875 L 31.3125 -7.6875 L 31.203125 -6.546875 L 31.265625 -2.8125 L 31.140625 -1.6875 L 30.59375 -0.546875 L 29.34375 0.0625 L 28.203125 0.1875 L 24.546875 -0.0625 L 20.875 0.125 L 19.796875 -0.0625 L 6.234375 0.0625 L 5.09375 -0.59375 Z M 4.3125 -1.734375 "/></g></g></g><g fill="#ffffff" fill-opacity="1"><g transform="translate(530.943723, 701.156119)"><g><path d="M 20.875 0.1875 L 19.6875 0.0625 L 18.484375 0.1875 L 17.09375 0.125 L 15.953125 -0.125 L 13.5 0.0625 L 12.421875 0 L 11.09375 0.125 L 6.78125 0.0625 L 4.984375 -0.71875 L 4.5 -2.34375 L 4.375 -3.65625 L 4.5625 -7.796875 L 4.375 -9 L 4.5 -10.140625 L 4.5625 -19.859375 L 4.375 -20.9375 L 4.4375 -25.859375 L 4.5625 -27 L 4.375 -28.265625 L 4.5 -34.140625 L 4.3125 -35.453125 L 4.5 -37.921875 L 4.375 -40.203125 L 5.046875 -41.453125 L 6.296875 -41.9375 L 7.5 -41.875 L 8.703125 -42 L 9.78125 -41.875 L 10.921875 -42.125 L 12.125 -41.9375 L 17.046875 -42.0625 L 18.234375 -41.9375 L 19.265625 -42 L 20.453125 -41.875 L 21.78125 -42 L 26.640625 -42.0625 L 27.71875 -41.8125 L 28.984375 -41.8125 L 30.1875 -41.34375 L 30.71875 -40.203125 L 30.84375 -36.59375 L 30.78125 -35.40625 L 30.84375 -34.203125 L 30.234375 -33.125 L 28.984375 -32.40625 L 27.84375 -32.34375 L 19.265625 -32.453125 L 18.125 -32.21875 L 16.984375 -32.28125 L 15.65625 -31.796875 L 15.125 -30.65625 L 15.125 -28.796875 L 15.59375 -26.9375 L 16.859375 -26.40625 L 20.34375 -26.515625 L 22.859375 -26.34375 L 24.125 -26.453125 L 27.65625 -26.453125 L 29.046875 -25.6875 L 29.640625 -24 L 29.453125 -18.59375 L 29.046875 -17.40625 L 27.84375 -16.921875 L 26.453125 -16.984375 L 25.265625 -16.859375 L 22.796875 -16.921875 L 20.515625 -16.796875 L 18.59375 -16.984375 L 16.796875 -16.921875 L 15.71875 -16.265625 L 15.1875 -15 L 15.1875 -11.21875 L 15.65625 -10.140625 L 16.921875 -9.546875 L 18.234375 -9.65625 L 19.375 -9.484375 L 20.703125 -9.546875 L 21.90625 -9.421875 L 23.875 -9.65625 L 26.9375 -9.59375 L 28.078125 -9.421875 L 29.453125 -9.546875 L 30.71875 -9 L 31.375 -7.796875 L 31.375 -1.734375 L 30.71875 -0.484375 L 29.453125 0.0625 Z M 20.875 0.1875 "/></g></g></g><g fill="#ffffff" fill-opacity="1"><g transform="translate(565.317023, 701.156119)"><g><path d="M 4.5 -1.859375 L 4.625 -4.140625 L 4.4375 -8.9375 L 4.5625 -10.140625 L 4.4375 -14.9375 L 4.625 -17.28125 L 4.4375 -18.546875 L 4.625 -19.6875 L 4.4375 -22.265625 L 4.625 -24.546875 L 4.375 -29.34375 L 4.5625 -30.546875 L 4.375 -31.734375 L 4.5625 -33.0625 L 4.4375 -35.34375 L 4.5 -36.546875 L 4.375 -37.734375 L 4.375 -40.203125 L 5.28125 -41.34375 L 6.359375 -42 L 7.625 -41.9375 L 8.703125 -42 L 9.90625 -41.875 L 13.734375 -42 L 14.9375 -41.875 L 23.453125 -41.8125 L 25.921875 -41.34375 L 29.21875 -40.265625 L 30.421875 -39.65625 L 32.640625 -38.28125 L 34.3125 -36.65625 L 35.34375 -35.875 L 36.90625 -34.015625 L 37.375 -33 L 38.765625 -30.953125 L 39.65625 -28.5625 L 39.953125 -27.484375 L 40.078125 -26.21875 L 40.984375 -22.796875 L 40.734375 -18.953125 L 40.796875 -17.9375 L 40.5 -16.6875 L 40.3125 -15.421875 L 39.90625 -14.34375 L 39.65625 -13.140625 L 39.0625 -12 L 38.765625 -10.859375 L 36.90625 -7.859375 L 34.5 -5.09375 L 29.40625 -1.6875 L 25.921875 -0.59375 L 22.078125 -0.0625 L 11.28125 0 L 10.015625 0.1875 L 8.8125 0.1875 L 7.5625 0 L 6.1875 0 L 5.21875 -0.546875 Z M 17.21875 -9.65625 L 22.203125 -9.90625 L 24.359375 -10.5 L 25.5625 -11.09375 L 26.515625 -11.703125 L 27.234375 -12.65625 L 28.015625 -13.5 L 28.796875 -14.578125 L 29.703125 -16.734375 L 30.0625 -17.875 L 30.359375 -20.8125 L 30.1875 -22.6875 L 29.453125 -26.21875 L 28.6875 -27.1875 L 28.015625 -28.3125 L 26.515625 -30 L 24.484375 -31.3125 L 22.078125 -32.046875 L 20.28125 -32.15625 L 19.015625 -32.09375 L 17.765625 -32.15625 L 16.015625 -31.5 L 15.296875 -30.421875 L 15.296875 -15 L 15.125 -13.796875 L 15.359375 -12.71875 L 15.234375 -11.515625 L 15.78125 -10.203125 Z M 17.21875 -9.65625 "/></g></g></g><g fill="#ffffff" fill-opacity="1"><g transform="translate(608.26862, 701.156119)"><g><path d="M 2.875 -1.734375 L 2.875 -6.359375 L 3 -7.5 L 3.71875 -8.640625 L 7.6875 -9.90625 L 8.28125 -11.21875 L 8.40625 -13.5625 L 8.15625 -16.140625 L 8.453125 -17.34375 L 8.21875 -19.6875 L 8.34375 -20.875 L 8.40625 -23.34375 L 8.21875 -24.71875 L 8.15625 -25.734375 L 8.34375 -30.84375 L 7.5625 -31.921875 L 3.90625 -33.1875 L 3.296875 -34.3125 L 3.296875 -35.453125 L 3.1875 -36.65625 L 3.1875 -37.984375 L 3.296875 -39 L 3.296875 -40.140625 L 3.953125 -41.40625 L 5.28125 -42 L 7.625 -41.875 L 8.765625 -41.9375 L 12.421875 -41.875 L 13.734375 -42 L 21.359375 -41.9375 L 23.28125 -41.40625 L 23.765625 -40.203125 L 23.875 -39 L 23.765625 -37.921875 L 23.765625 -34.375 L 23.09375 -33.234375 L 21.953125 -32.578125 L 20.640625 -32.515625 L 19.5 -31.859375 L 18.84375 -30.78125 L 18.84375 -28.265625 L 18.953125 -27 L 18.84375 -25.796875 L 18.953125 -24.65625 L 18.84375 -22.796875 L 18.953125 -21 L 18.71875 -18.484375 L 18.953125 -16.078125 L 18.84375 -11.15625 L 19.5 -9.953125 L 23.515625 -8.703125 L 24.359375 -7.6875 L 24.1875 -4.015625 L 24.296875 -2.9375 L 24.296875 -1.625 L 23.640625 -0.546875 L 22.5 0.0625 L 4.6875 -0.0625 L 3.484375 -0.484375 Z M 2.875 -1.734375 "/></g></g></g><g fill="#ffffff" fill-opacity="1"><g transform="translate(635.503314, 701.156119)"><g><path d="M 11.515625 -1.859375 L 11.453125 -6.546875 L 11.578125 -7.734375 L 11.40625 -11.40625 L 11.453125 -12.65625 L 11.40625 -13.859375 L 11.640625 -15.65625 L 11.453125 -17.40625 L 11.453125 -19.796875 L 11.578125 -21 L 11.453125 -22.140625 L 11.640625 -24 L 11.453125 -30.59375 L 10.859375 -31.734375 L 9.78125 -32.40625 L 4.4375 -32.453125 L 2.875 -32.28125 L 1.6875 -32.875 L 1.015625 -34.203125 L 1.078125 -40.203125 L 1.6875 -41.40625 L 3 -42 L 20.875 -41.875 L 22.265625 -42.0625 L 23.453125 -42.0625 L 24.65625 -41.9375 L 25.859375 -41.9375 L 27.1875 -42.125 L 28.3125 -42.125 L 29.28125 -42 L 30.71875 -42.125 L 31.921875 -41.515625 L 32.515625 -40.3125 L 32.40625 -35.40625 L 32.515625 -34.140625 L 31.921875 -32.9375 L 30.546875 -32.40625 L 27.234375 -32.453125 L 26.15625 -32.34375 L 24.953125 -32.40625 L 23.9375 -32.34375 L 22.625 -31.796875 L 22.140625 -30.71875 L 22.265625 -29.40625 L 22.078125 -28.203125 L 22.3125 -16.265625 L 22.140625 -13.734375 L 22.265625 -12.65625 L 22.140625 -9 L 21.953125 -7.734375 L 22.140625 -6.71875 L 22.203125 -4.3125 L 22.078125 -2.9375 L 22.140625 -1.796875 L 21.65625 -0.59375 L 20.453125 -0.125 L 16.734375 -0.125 L 15.59375 0 L 14.40625 -0.125 L 13.265625 0 L 12 -0.59375 Z M 11.515625 -1.859375 "/></g></g></g></svg>